<?xml version="1.0" standalone="no"?>
<!DOCTYPE svg PUBLIC "-//W3C//DTD SVG 20010904//EN"
 "http://www.w3.org/TR/2001/REC-SVG-20010904/DTD/svg10.dtd">
<svg version="1.0" xmlns="http://www.w3.org/2000/svg"
 width="396.0000pt" height="478.3000pt" viewBox="121.0384 64.7235 396.0000 478.3000"
 preserveAspectRatio="xMidYMid meet">
<defs>
<linearGradient id="goldFill" gradientUnits="userSpaceOnUse" x1="0" y1="8451" x2="0" y2="3668">
<stop offset="0.00" stop-color="#DFB97A"/>
<stop offset="0.12" stop-color="#E5BF7E"/>
<stop offset="0.25" stop-color="#E3BB7A"/>
<stop offset="0.38" stop-color="#E4BC7A"/>
<stop offset="0.50" stop-color="#E5BD7A"/>
<stop offset="0.62" stop-color="#E1B877"/>
<stop offset="0.72" stop-color="#D5AA6A"/>
<stop offset="0.82" stop-color="#CEA161"/>
<stop offset="0.92" stop-color="#C59C62"/>
<stop offset="1.00" stop-color="#BE935A"/>
</linearGradient>
</defs>
<metadata>
Created by potrace 1.12, written by Peter Selinger 2001-2015
</metadata>
<g transform="translate(-678.961554,909.823504) scale(0.100000,-0.100000)"
fill="url(#goldFill)" stroke="none">
<path d="M9542 8437 c-22 -26 -11 -60 23 -71 85 -25 116 -40 150 -74 50 -49
63 -83 74 -194 16 -146 33 -994 29 -1405 l-3 -371 -135 121 c-219 197 -409
388 -430 432 -25 51 -26 97 -2 118 9 8 37 19 62 24 42 9 45 11 43 38 -4 45
-28 58 -95 51 -193 -19 -440 -27 -547 -17 -64 6 -179 13 -257 17 -164 7 -187
1 -182 -48 3 -30 7 -32 104 -64 159 -51 226 -91 417 -245 154 -124 852 -751
910 -817 11 -11 16 -25 13 -31 -11 -17 -419 -384 -639 -574 -319 -274 -559
-433 -732 -482 -94 -27 -115 -41 -115 -74 0 -29 2 -30 64 -36 36 -4 86 -5 113
-2 104 12 437 18 603 10 217 -11 230 -9 230 26 0 22 -8 31 -44 48 -113 55 -58
151 245 429 169 154 364 324 373 324 3 0 6 -244 6 -542 0 -527 -9 -828 -31
-993 -18 -141 -73 -227 -164 -259 -76 -27 -80 -30 -83 -71 l-3 -37 213 8 c117
4 278 6 358 4 80 -2 192 -4 250 -5 l105 0 3 37 c3 34 1 38 -25 43 -108 24
-180 86 -208 179 -25 80 -44 337 -55 709 -12 420 -13 887 -2 887 15 0 510
-455 571 -526 73 -82 79 -162 15 -189 -30 -12 -35 -19 -32 -42 4 -40 40 -44
273 -31 186 9 330 7 581 -8 130 -9 190 0 197 27 8 31 -22 54 -114 84 -180 60
-355 177 -664 444 -176 152 -725 653 -725 661 0 8 262 239 635 562 407 352
508 420 723 488 109 35 117 44 85 89 l-16 24 -151 -8 c-239 -12 -551 -13 -670
-4 -123 10 -156 0 -156 -46 0 -20 6 -25 38 -31 77 -14 93 -67 44 -145 -33 -51
-272 -280 -482 -462 l-145 -126 -7 87 c-6 89 0 766 8 791 4 11 21 13 88 7 103
-7 266 8 366 35 186 50 356 178 433 326 106 202 83 477 -55 669 -72 101 -246
200 -403 230 -77 14 -121 15 -315 8 -301 -11 -416 -11 -595 0 -132 7 -152 7
-163 -7z m893 -148 c202 -37 335 -216 335 -451 0 -85 -27 -204 -63 -275 -29
-56 -125 -152 -185 -182 -85 -43 -245 -65 -307 -41 l-27 10 5 423 c2 284 7
434 15 458 21 63 95 82 227 58z m480 -221 c74 -135 74 -322 0 -467 -34 -68
-50 -74 -20 -8 35 81 48 164 43 275 -6 110 -31 192 -79 262 l-31 45 30 -28
c16 -16 42 -51 57 -79z m-905 -1018 c9 -597 19 -1040 24 -1047 6 -8 685 573
877 748 196 181 207 189 111 82 -114 -126 -554 -533 -787 -728 -33 -27 -95
-80 -137 -118 l-77 -69 0 -327 c-1 -335 -19 -1362 -25 -1368 -2 -2 -6 232 -10
519 -6 523 -20 1106 -27 1112 -2 2 -150 -118 -329 -267 -220 -184 -392 -337
-532 -476 -115 -112 -208 -200 -208 -194 0 5 106 116 234 245 194 195 449 432
782 728 l51 46 6 134 c4 74 10 358 13 630 4 272 8 513 8 535 1 22 4 222 6 445
3 223 6 329 7 235 1 -93 7 -483 13 -865z m-1060 -192 c63 -38 130 -95 260
-223 96 -94 218 -209 270 -255 121 -107 118 -104 98 -94 -46 25 -301 247 -433
378 -92 92 -179 168 -225 198 -100 64 -76 62 30 -4z m1390 -1223 c19 -19 32
-35 29 -35 -3 0 -20 16 -39 35 -19 19 -32 35 -29 35 3 0 20 -16 39 -35z m279
-245 c58 -52 143 -135 190 -184 98 -101 222 -204 299 -248 65 -37 68 -46 4
-14 -116 59 -254 180 -642 565 -89 88 -90 90 -25 35 39 -32 117 -101 174 -154z
m-622 -1262 c-2 -13 -4 -5 -4 17 -1 22 1 32 4 23 2 -10 2 -28 0 -40z"/>
<path d="M11383 6485 c-117 -32 -217 -104 -268 -190 -59 -102 -69 -242 -25
-358 28 -73 111 -164 185 -203 30 -16 55 -31 55 -34 0 -3 -46 -3 -102 -2 -75
3 -105 8 -111 18 -20 35 -56 68 -64 59 -4 -5 -7 -56 -5 -112 l3 -103 191 0
190 0 -7 88 c-7 93 -3 85 -78 143 -54 41 -107 183 -107 284 0 116 53 252 116
300 140 107 309 54 374 -115 22 -57 25 -80 25 -185 -1 -101 -5 -129 -24 -178
-22 -57 -89 -139 -121 -149 -12 -4 -16 -26 -18 -96 l-4 -92 186 0 186 0 0 110
c0 125 -9 137 -54 70 l-26 -40 -113 0 -112 1 62 30 c129 62 210 184 220 329
13 182 -72 326 -234 403 -58 26 -79 31 -167 34 -68 2 -118 -2 -153 -12z m-200
-245 c-12 -32 -17 -79 -18 -162 0 -65 -3 -110 -7 -100 -20 51 -1 256 29 305
13 22 10 -3 -4 -43z m675 -145 c0 -33 -3 -73 -7 -90 -4 -18 -7 9 -7 65 1 52
-2 111 -6 130 -7 33 -6 33 7 -5 7 -22 13 -67 13 -100z"/>
<path d="M8465 6434 c-14 -31 -25 -58 -25 -60 0 -11 -238 -540 -273 -608 -53
-102 -80 -133 -128 -147 -25 -8 -39 -18 -39 -29 0 -14 13 -18 72 -22 39 -3
109 -3 154 0 69 4 83 8 87 23 4 13 0 19 -11 19 -26 0 -82 38 -82 55 0 9 19 61
41 116 l42 99 170 -2 170 -3 50 -114 50 -115 -23 -18 c-12 -10 -28 -18 -36
-18 -8 0 -14 -9 -14 -20 0 -19 7 -20 185 -20 179 0 185 1 185 20 0 11 -8 23
-17 26 -59 19 -77 31 -103 69 -31 45 -116 222 -281 585 -87 193 -100 215 -123
218 -23 3 -29 -3 -51 -54z m130 -474 c4 -13 -14 -15 -128 -13 -72 0 -131 4
-131 8 1 3 22 52 47 108 25 56 55 124 67 152 l21 50 60 -145 c32 -80 61 -152
64 -160z m92 21 c40 -90 72 -166 70 -168 -8 -7 -178 364 -177 384 1 14 31 -48
107 -216z"/>
</g>
</svg>
