<?xml version="1.0" standalone="no"?>
<!DOCTYPE svg PUBLIC "-//W3C//DTD SVG 20010904//EN"
 "http://www.w3.org/TR/2001/REC-SVG-20010904/DTD/svg10.dtd">
<svg version="1.0" xmlns="http://www.w3.org/2000/svg"
 width="643.038446pt" height="543.061095pt" viewBox="0 0 643.038446 543.061095"
 preserveAspectRatio="xMidYMid meet">
<defs>
<linearGradient id="goldFill" gradientUnits="userSpaceOnUse" x1="9060" y1="9091" x2="10960" y2="3668">
<stop offset="0.00" stop-color="#DFB97A"/>
<stop offset="0.12" stop-color="#E5BF7E"/>
<stop offset="0.25" stop-color="#E3BB7A"/>
<stop offset="0.38" stop-color="#E4BC7A"/>
<stop offset="0.50" stop-color="#E5BD7A"/>
<stop offset="0.62" stop-color="#E1B877"/>
<stop offset="0.72" stop-color="#D5AA6A"/>
<stop offset="0.82" stop-color="#CEA161"/>
<stop offset="0.92" stop-color="#C59C62"/>
<stop offset="1.00" stop-color="#BE935A"/>
</linearGradient>
</defs>
<metadata>
Created by potrace 1.12, written by Peter Selinger 2001-2015
</metadata>
<g transform="translate(-678.961554,909.823504) scale(0.100000,-0.100000)"
fill="url(#goldFill)" stroke="none">
<path d="M9190 9074 c-261 -54 -356 -102 -530 -269 -53 -50 -151 -128 -220
-174 -139 -93 -250 -178 -371 -282 -44 -38 -83 -69 -86 -69 -4 0 68 75 158
168 200 203 276 312 328 471 26 80 27 106 4 97 -40 -16 -164 -107 -231 -170
-144 -137 -195 -223 -287 -491 -58 -169 -60 -171 -198 -341 -117 -145 -249
-343 -314 -473 -29 -58 -53 -103 -53 -100 -1 27 46 140 123 297 102 206 150
339 174 479 15 92 12 203 -7 203 -4 0 -29 -24 -55 -52 -143 -159 -253 -370
-286 -551 -6 -34 -10 -150 -10 -257 1 -216 -4 -257 -69 -500 -45 -167 -77
-339 -86 -464 -4 -47 -10 -84 -13 -80 -3 3 -6 112 -7 242 -1 301 -26 459 -95
594 -38 74 -57 49 -91 -117 -17 -84 -19 -124 -15 -255 6 -190 22 -251 113
-438 73 -149 78 -169 94 -405 14 -213 75 -547 120 -666 12 -29 19 -55 17 -57
-7 -8 -76 152 -97 226 -61 213 -132 374 -218 495 -60 84 -169 198 -182 190
-27 -16 2 -238 49 -382 65 -198 153 -330 333 -495 110 -102 155 -162 212 -283
82 -175 221 -404 313 -518 35 -43 63 -80 63 -84 0 -13 -53 44 -145 152 -135
161 -261 276 -380 348 -70 42 -259 120 -281 115 -22 -5 39 -124 113 -223 134
-176 271 -280 468 -352 155 -57 270 -112 320 -152 22 -18 92 -83 155 -144 64
-62 143 -134 177 -162 34 -27 60 -51 59 -53 -2 -2 -44 23 -93 56 -102 67 -266
141 -388 177 -54 15 -124 26 -204 31 -114 6 -121 6 -121 -12 0 -20 89 -109
157 -156 65 -44 183 -96 271 -119 50 -12 137 -23 247 -28 197 -11 228 -20 375
-107 179 -107 486 -241 506 -222 18 19 -19 44 -168 117 -239 115 -280 160
-343 366 -44 145 -84 215 -198 344 -66 74 -111 111 -136 111 -26 0 -2 -147 45
-272 39 -102 96 -183 208 -292 112 -109 94 -102 -99 43 -296 222 -314 254
-325 581 -7 183 -12 230 -34 315 -40 152 -135 330 -162 302 -16 -15 -33 -148
-34 -252 0 -181 43 -342 141 -523 21 -41 39 -76 39 -79 0 -7 -93 96 -158 175
-63 76 -162 224 -198 294 -38 76 -33 140 25 315 78 234 96 395 68 588 -11 69
-15 80 -32 80 -27 0 -124 -191 -155 -306 -35 -132 -37 -351 -4 -479 25 -95
-98 182 -135 304 -40 131 -24 234 58 369 116 192 160 323 168 500 7 129 1 133
-75 53 -148 -156 -212 -331 -212 -580 0 -77 -2 -137 -4 -135 -3 2 -17 72 -32
154 -20 107 -28 185 -28 270 -1 117 0 122 32 188 22 44 63 99 117 157 179 191
254 320 305 521 24 92 25 129 6 129 -38 0 -218 -176 -281 -274 -69 -108 -129
-264 -178 -461 -9 -38 -7 151 4 270 13 147 33 245 61 303 36 70 118 152 244
242 146 104 242 198 315 310 81 123 121 230 87 230 -20 0 -200 -100 -258 -143
-119 -89 -220 -221 -312 -407 -26 -52 -47 -88 -48 -79 0 9 18 72 40 140 45
138 152 364 228 480 86 131 143 163 322 179 182 17 263 39 377 100 69 37 193
126 193 139 0 5 -26 15 -57 22 -69 14 -219 6 -308 -17 -86 -22 -229 -94 -312
-159 -40 -30 -73 -53 -73 -50 0 2 53 67 118 142 226 262 242 271 517 283 188
9 247 19 354 63 84 35 213 116 208 131 -11 34 -245 47 -372 21 -108 -23 -246
-85 -347 -156 -51 -37 -39 -18 22 34 186 157 357 256 490 282 147 28 228 54
318 99 132 67 241 154 304 245 25 35 28 45 17 52 -20 12 -39 10 -169 -17z m59
-51 c-1 -15 -129 -115 -209 -163 -84 -50 -172 -86 -189 -76 -5 4 -11 2 -13 -3
-1 -4 -21 -11 -43 -15 -62 -11 -37 6 146 99 90 47 158 85 151 85 -20 0 -199
-69 -266 -102 -32 -16 -60 -27 -63 -25 -6 7 99 78 162 110 48 24 176 66 260
86 52 12 65 13 64 4z m-893 -220 c-30 -59 -75 -122 -131 -186 -122 -138 -124
-130 -11 32 107 154 84 149 -41 -8 -42 -53 -81 -100 -86 -106 -21 -22 38 84
78 140 50 70 227 243 233 227 2 -6 -17 -51 -42 -99z m394 -343 c-81 -43 -201
-79 -283 -85 l-72 -5 85 24 c47 14 110 34 140 45 l55 21 -50 -6 c-27 -3 -97
-17 -154 -30 -57 -13 -106 -22 -108 -20 -6 5 149 57 217 72 30 6 93 12 140 13
l85 0 -55 -29z m-1125 -262 c-10 -45 -29 -116 -42 -158 -25 -74 -127 -300
-136 -300 -3 0 19 71 48 158 29 86 55 171 59 187 16 72 -100 -165 -139 -283
-27 -84 -28 -54 0 54 14 56 46 142 75 199 56 115 143 252 148 236 2 -6 -4 -47
-13 -93z m715 -142 c-6 -8 -53 -35 -103 -60 -92 -44 -179 -71 -272 -82 -39 -4
-22 4 82 40 119 41 221 85 168 72 -11 -3 -46 -10 -77 -16 -31 -6 -92 -22 -134
-35 -43 -13 -80 -23 -81 -21 -6 6 111 54 182 75 68 21 160 37 219 40 24 1 26
-1 16 -13z m-480 -472 c0 -24 -112 -167 -199 -255 -125 -125 -190 -168 -81
-53 78 82 180 201 180 210 0 17 -234 -185 -251 -217 -6 -12 -13 -18 -16 -15
-10 10 106 154 161 200 52 44 185 135 199 136 4 0 7 -3 7 -6z m-802 -384 c27
-102 40 -187 46 -300 8 -135 -8 -144 -23 -13 -6 59 -18 133 -26 163 -14 53
-14 50 -10 -95 3 -82 7 -170 10 -195 9 -77 -13 -9 -31 94 -12 69 -15 124 -10
226 6 124 14 205 21 198 2 -2 12 -37 23 -78z m567 -257 c-4 -10 -14 -38 -22
-63 -29 -85 -63 -153 -118 -235 -63 -96 -101 -133 -55 -55 55 94 133 255 116
241 -25 -21 -110 -140 -146 -203 -17 -32 -34 -58 -36 -58 -6 0 24 76 54 136
36 71 86 140 150 207 48 49 69 60 57 30z m-109 -714 c-18 -93 -54 -196 -95
-274 -18 -33 -29 -51 -25 -40 3 11 21 63 39 115 19 52 36 113 40 135 5 37 3
34 -33 -35 -22 -41 -50 -105 -62 -143 -13 -37 -25 -65 -27 -63 -9 8 38 160 71
230 33 71 94 162 102 153 2 -2 -2 -37 -10 -78z m-571 -145 c30 -45 70 -115 89
-155 35 -77 91 -247 83 -255 -2 -3 -28 48 -56 113 -59 132 -120 247 -128 240
-9 -9 77 -237 123 -329 14 -27 21 -47 15 -44 -31 19 -133 201 -166 297 -14 38
-65 251 -65 268 0 11 48 -51 105 -135z m682 -421 c-6 -150 -30 -296 -57 -342
-12 -21 -12 -19 4 74 8 44 17 118 21 165 5 78 5 83 -9 60 -8 -14 -22 -63 -31
-110 -9 -47 -21 -101 -26 -120 -15 -58 -1 115 16 195 14 69 73 235 83 235 3 0
2 -71 -1 -157z m237 -540 c41 -106 68 -247 64 -330 -3 -58 -3 -57 -21 47 -9
58 -26 132 -37 165 l-20 60 5 -90 c3 -49 12 -126 20 -169 8 -44 14 -81 12 -83
-2 -2 -14 27 -26 64 -32 101 -55 284 -47 366 4 38 9 67 11 65 2 -2 20 -45 39
-95z m-718 -73 c104 -55 171 -105 273 -205 58 -57 104 -105 101 -108 -3 -2
-70 46 -150 109 -79 62 -147 111 -149 108 -8 -8 171 -182 227 -221 28 -20 50
-38 48 -40 -8 -8 -122 55 -183 101 -65 49 -200 204 -247 283 -9 16 10 9 80
-27z m1151 -595 c45 -60 138 -233 130 -242 -3 -2 -19 21 -36 51 -40 70 -121
180 -127 173 -6 -6 44 -109 92 -188 19 -31 34 -60 34 -64 0 -14 -61 68 -100
135 -34 56 -90 203 -90 233 0 16 47 -31 97 -98z m-512 -190 c80 -27 250 -103
244 -110 -3 -2 -60 13 -127 35 -67 21 -137 41 -155 44 -55 11 108 -70 201
-100 95 -29 102 -42 15 -24 -121 25 -208 60 -300 119 -51 33 -93 63 -93 67 0
13 146 -8 215 -31z"/>
<path d="M10650 9077 c0 -21 67 -104 126 -155 122 -108 269 -176 469 -217 153
-32 222 -63 375 -171 145 -102 272 -219 145 -134 -68 46 -160 89 -252 117 -76
23 -106 27 -223 27 -129 1 -210 -12 -210 -34 0 -18 152 -103 245 -137 99 -37
149 -45 320 -53 234 -11 266 -22 374 -129 76 -75 253 -282 247 -289 -2 -1 -37
22 -77 52 -96 73 -199 122 -318 153 -81 20 -114 24 -213 21 -64 -2 -120 -7
-125 -11 -10 -11 57 -72 135 -124 81 -53 224 -109 312 -122 299 -42 329 -50
376 -103 43 -47 139 -206 200 -333 53 -109 142 -361 131 -371 -2 -2 -25 40
-53 94 -98 193 -204 326 -328 411 -49 34 -184 104 -223 116 -19 5 -23 3 -23
-17 0 -39 72 -177 137 -263 81 -106 156 -176 285 -264 121 -82 210 -172 244
-246 13 -27 30 -93 39 -146 14 -90 39 -438 32 -446 -2 -2 -23 63 -46 144 -82
286 -178 441 -359 582 -88 68 -97 55 -62 -85 54 -212 119 -325 288 -506 191
-204 206 -284 129 -678 l-22 -115 -5 165 c-6 179 -23 257 -81 371 -46 93 -170
239 -201 239 -13 0 -9 -151 7 -232 26 -137 66 -237 146 -364 89 -141 108 -242
69 -374 -24 -82 -140 -363 -147 -356 -3 2 4 40 14 83 13 58 18 114 17 223 -1
127 -5 156 -28 234 -44 146 -139 316 -163 292 -2 -2 -11 -44 -20 -93 -32 -180
-5 -392 77 -613 21 -56 34 -111 37 -161 5 -73 4 -80 -27 -135 -60 -106 -147
-227 -245 -339 -53 -60 -100 -112 -106 -113 -5 -2 7 24 27 58 59 101 105 209
131 310 36 139 34 340 -3 473 -3 9 -14 17 -24 17 -27 0 -114 -181 -146 -305
-21 -83 -27 -135 -34 -310 -12 -303 -29 -342 -200 -486 -63 -52 -309 -239
-316 -239 -2 0 38 42 89 93 102 100 135 144 190 253 56 108 98 314 66 314 -51
0 -214 -180 -277 -305 -11 -22 -37 -92 -57 -155 -45 -138 -63 -174 -106 -219
-52 -52 -105 -84 -238 -145 -129 -58 -161 -79 -161 -104 0 -18 22 -13 150 35
112 42 223 96 336 164 45 27 112 63 150 81 67 31 72 32 258 39 169 6 200 10
269 33 143 48 270 126 351 216 55 61 50 70 -36 70 -105 0 -198 -16 -302 -51
-151 -50 -237 -94 -423 -217 -48 -30 -20 0 61 67 47 39 142 125 213 191 141
133 207 172 403 240 220 76 365 183 508 375 51 68 119 201 109 211 -10 10
-129 -32 -234 -82 -144 -69 -292 -200 -486 -431 -43 -51 -82 -93 -88 -93 -6 0
22 39 60 86 76 91 194 282 281 454 85 167 114 206 269 365 81 83 161 170 178
195 107 157 183 404 183 591 0 52 -2 59 -19 59 -23 0 -111 -95 -181 -196 -89
-128 -152 -274 -212 -489 -17 -60 -45 -139 -64 -175 -40 -78 -42 -74 -10 17
47 131 126 588 126 731 0 121 16 179 89 332 76 156 94 214 112 358 9 69 9 121
1 205 -14 140 -51 292 -72 292 -32 0 -87 -135 -117 -285 -12 -64 -17 -144 -17
-322 -1 -130 -5 -240 -9 -244 -4 -4 -7 13 -7 39 0 67 -46 324 -81 457 -73 269
-70 248 -73 505 -3 208 -6 251 -25 325 -26 100 -101 261 -166 359 -49 73 -151
191 -165 191 -16 0 -22 -110 -11 -192 19 -130 92 -333 186 -513 71 -138 124
-265 110 -265 -3 0 -23 37 -46 83 -81 161 -227 378 -373 552 -42 50 -82 108
-90 130 -9 22 -43 115 -76 206 -77 208 -112 270 -225 387 -79 83 -247 212
-276 212 -15 0 -11 -36 12 -102 54 -161 147 -296 322 -468 76 -74 143 -144
149 -154 6 -11 -45 28 -113 86 -142 120 -237 192 -365 274 -49 31 -132 98
-184 149 -52 50 -117 106 -143 124 -119 81 -312 145 -474 158 -71 5 -83 4 -83
-10z m290 -94 c97 -28 227 -91 283 -135 41 -33 44 -50 5 -24 -53 34 -328 141
-302 117 5 -5 77 -43 159 -85 148 -76 196 -107 145 -91 -14 4 -35 7 -47 7 -13
0 -21 3 -18 8 2 4 -7 12 -21 19 -35 16 -44 13 -14 -5 l25 -15 -25 6 c-76 18
-225 108 -336 204 l-39 33 50 -7 c28 -3 88 -18 135 -32z m756 -149 c90 -82
161 -169 200 -246 35 -69 30 -69 -18 -2 -53 75 -149 186 -155 180 -3 -3 32
-60 77 -128 l82 -123 -52 50 c-57 55 -135 158 -168 220 -43 81 -62 125 -56
125 3 0 44 -34 90 -76z m-230 -369 c54 -14 116 -35 138 -46 23 -10 34 -17 25
-15 -82 22 -255 56 -268 53 -15 -3 131 -53 224 -75 l40 -10 -37 -1 c-79 -2
-254 47 -348 99 l-35 19 81 1 c56 0 112 -8 180 -25z m965 -252 c72 -107 136
-245 165 -360 13 -53 23 -101 21 -107 -2 -5 -18 33 -36 84 -37 106 -119 286
-126 278 -5 -5 37 -154 80 -277 14 -41 23 -76 22 -78 -7 -6 -116 234 -136 299
-16 53 -51 214 -51 234 0 13 15 -5 61 -73z m-661 -153 c74 -12 227 -61 280
-90 45 -25 37 -25 -36 1 -73 25 -224 62 -231 56 -4 -5 148 -66 247 -100 69
-24 23 -20 -83 7 -86 22 -222 82 -273 121 -18 14 -18 14 6 15 14 0 54 -5 90
-10z m496 -541 c73 -49 204 -181 238 -241 13 -22 -18 3 -93 75 -107 102 -164
148 -145 115 16 -27 123 -154 159 -188 20 -19 41 -44 47 -54 16 -30 -66 37
-140 114 -55 57 -182 228 -182 245 0 8 35 -11 116 -66z m728 -484 c1 -132 -3
-187 -17 -248 -10 -43 -21 -77 -23 -74 -2 2 0 37 5 78 15 118 21 241 12 279
-6 31 -9 23 -24 -70 -10 -58 -21 -134 -26 -170 -8 -64 -9 -64 -10 40 -1 115 8
188 41 325 l22 89 10 -39 c5 -22 10 -116 10 -210z m-498 -188 c57 -72 131
-205 149 -267 4 -14 -15 11 -42 55 -46 77 -139 205 -148 205 -8 0 45 -114 95
-204 28 -49 49 -91 47 -93 -2 -1 -31 39 -64 90 -61 92 -89 149 -123 242 -10
28 -21 58 -26 69 -15 39 48 -16 112 -97z m78 -667 c33 -63 87 -224 85 -259 0
-9 -13 20 -28 64 -28 81 -87 205 -97 205 -9 0 9 -73 42 -174 19 -55 32 -101
30 -103 -6 -7 -74 161 -90 222 -8 33 -18 85 -21 115 l-6 55 25 -30 c14 -16 41
-59 60 -95z m562 -108 c-13 -60 -39 -144 -56 -186 -29 -70 -138 -251 -146
-243 -2 2 18 52 45 113 55 125 105 263 98 271 -7 6 -64 -100 -128 -239 -30
-64 -56 -115 -57 -113 -9 9 63 212 103 291 49 98 158 252 163 230 2 -8 -8 -63
-22 -124z m-683 -442 c17 -69 38 -218 36 -260 -1 -14 -11 27 -24 90 -12 63
-30 131 -39 150 -16 35 -16 34 -11 -55 3 -49 10 -118 16 -153 17 -97 4 -84
-21 20 -17 68 -23 133 -26 243 l-4 150 29 -60 c16 -33 36 -89 44 -125z m-254
-541 c1 -87 -51 -360 -66 -345 -3 2 2 49 11 104 9 55 16 126 15 158 l0 59 -15
-40 c-8 -22 -26 -98 -39 -170 l-25 -130 5 105 c6 122 22 197 67 313 l32 82 7
-40 c5 -22 8 -65 8 -96z m705 -71 c-122 -160 -197 -228 -328 -299 -42 -22 -76
-39 -76 -36 0 2 30 27 68 55 68 51 244 222 228 222 -12 0 -95 -61 -210 -153
-54 -44 -97 -75 -95 -69 7 20 161 173 217 215 57 43 208 126 230 127 7 0 -8
-28 -34 -62z m-1120 -544 c-27 -86 -72 -170 -129 -249 -46 -63 -44 -57 33 94
35 67 62 125 59 127 -5 6 -78 -99 -128 -183 -21 -37 -39 -64 -39 -60 0 19 93
203 121 240 40 51 102 118 106 113 2 -1 -8 -38 -23 -82z m656 -179 c0 -9 -171
-116 -219 -137 -48 -20 -201 -58 -236 -57 -11 0 25 15 81 34 106 35 251 104
222 105 -10 0 -83 -20 -162 -45 -80 -25 -149 -45 -153 -44 -13 0 86 47 180 85
110 44 287 80 287 59z"/>
<path d="M9542 8437 c-22 -26 -11 -60 23 -71 85 -25 116 -40 150 -74 50 -49
63 -83 74 -194 16 -146 33 -994 29 -1405 l-3 -371 -135 121 c-219 197 -409
388 -430 432 -25 51 -26 97 -2 118 9 8 37 19 62 24 42 9 45 11 43 38 -4 45
-28 58 -95 51 -193 -19 -440 -27 -547 -17 -64 6 -179 13 -257 17 -164 7 -187
1 -182 -48 3 -30 7 -32 104 -64 159 -51 226 -91 417 -245 154 -124 852 -751
910 -817 11 -11 16 -25 13 -31 -11 -17 -419 -384 -639 -574 -319 -274 -559
-433 -732 -482 -94 -27 -115 -41 -115 -74 0 -29 2 -30 64 -36 36 -4 86 -5 113
-2 104 12 437 18 603 10 217 -11 230 -9 230 26 0 22 -8 31 -44 48 -113 55 -58
151 245 429 169 154 364 324 373 324 3 0 6 -244 6 -542 0 -527 -9 -828 -31
-993 -18 -141 -73 -227 -164 -259 -76 -27 -80 -30 -83 -71 l-3 -37 213 8 c117
4 278 6 358 4 80 -2 192 -4 250 -5 l105 0 3 37 c3 34 1 38 -25 43 -108 24
-180 86 -208 179 -25 80 -44 337 -55 709 -12 420 -13 887 -2 887 15 0 510
-455 571 -526 73 -82 79 -162 15 -189 -30 -12 -35 -19 -32 -42 4 -40 40 -44
273 -31 186 9 330 7 581 -8 130 -9 190 0 197 27 8 31 -22 54 -114 84 -180 60
-355 177 -664 444 -176 152 -725 653 -725 661 0 8 262 239 635 562 407 352
508 420 723 488 109 35 117 44 85 89 l-16 24 -151 -8 c-239 -12 -551 -13 -670
-4 -123 10 -156 0 -156 -46 0 -20 6 -25 38 -31 77 -14 93 -67 44 -145 -33 -51
-272 -280 -482 -462 l-145 -126 -7 87 c-6 89 0 766 8 791 4 11 21 13 88 7 103
-7 266 8 366 35 186 50 356 178 433 326 106 202 83 477 -55 669 -72 101 -246
200 -403 230 -77 14 -121 15 -315 8 -301 -11 -416 -11 -595 0 -132 7 -152 7
-163 -7z m893 -148 c202 -37 335 -216 335 -451 0 -85 -27 -204 -63 -275 -29
-56 -125 -152 -185 -182 -85 -43 -245 -65 -307 -41 l-27 10 5 423 c2 284 7
434 15 458 21 63 95 82 227 58z m480 -221 c74 -135 74 -322 0 -467 -34 -68
-50 -74 -20 -8 35 81 48 164 43 275 -6 110 -31 192 -79 262 l-31 45 30 -28
c16 -16 42 -51 57 -79z m-905 -1018 c9 -597 19 -1040 24 -1047 6 -8 685 573
877 748 196 181 207 189 111 82 -114 -126 -554 -533 -787 -728 -33 -27 -95
-80 -137 -118 l-77 -69 0 -327 c-1 -335 -19 -1362 -25 -1368 -2 -2 -6 232 -10
519 -6 523 -20 1106 -27 1112 -2 2 -150 -118 -329 -267 -220 -184 -392 -337
-532 -476 -115 -112 -208 -200 -208 -194 0 5 106 116 234 245 194 195 449 432
782 728 l51 46 6 134 c4 74 10 358 13 630 4 272 8 513 8 535 1 22 4 222 6 445
3 223 6 329 7 235 1 -93 7 -483 13 -865z m-1060 -192 c63 -38 130 -95 260
-223 96 -94 218 -209 270 -255 121 -107 118 -104 98 -94 -46 25 -301 247 -433
378 -92 92 -179 168 -225 198 -100 64 -76 62 30 -4z m1390 -1223 c19 -19 32
-35 29 -35 -3 0 -20 16 -39 35 -19 19 -32 35 -29 35 3 0 20 -16 39 -35z m279
-245 c58 -52 143 -135 190 -184 98 -101 222 -204 299 -248 65 -37 68 -46 4
-14 -116 59 -254 180 -642 565 -89 88 -90 90 -25 35 39 -32 117 -101 174 -154z
m-622 -1262 c-2 -13 -4 -5 -4 17 -1 22 1 32 4 23 2 -10 2 -28 0 -40z"/>
<path d="M11383 6485 c-117 -32 -217 -104 -268 -190 -59 -102 -69 -242 -25
-358 28 -73 111 -164 185 -203 30 -16 55 -31 55 -34 0 -3 -46 -3 -102 -2 -75
3 -105 8 -111 18 -20 35 -56 68 -64 59 -4 -5 -7 -56 -5 -112 l3 -103 191 0
190 0 -7 88 c-7 93 -3 85 -78 143 -54 41 -107 183 -107 284 0 116 53 252 116
300 140 107 309 54 374 -115 22 -57 25 -80 25 -185 -1 -101 -5 -129 -24 -178
-22 -57 -89 -139 -121 -149 -12 -4 -16 -26 -18 -96 l-4 -92 186 0 186 0 0 110
c0 125 -9 137 -54 70 l-26 -40 -113 0 -112 1 62 30 c129 62 210 184 220 329
13 182 -72 326 -234 403 -58 26 -79 31 -167 34 -68 2 -118 -2 -153 -12z m-200
-245 c-12 -32 -17 -79 -18 -162 0 -65 -3 -110 -7 -100 -20 51 -1 256 29 305
13 22 10 -3 -4 -43z m675 -145 c0 -33 -3 -73 -7 -90 -4 -18 -7 9 -7 65 1 52
-2 111 -6 130 -7 33 -6 33 7 -5 7 -22 13 -67 13 -100z"/>
<path d="M8465 6434 c-14 -31 -25 -58 -25 -60 0 -11 -238 -540 -273 -608 -53
-102 -80 -133 -128 -147 -25 -8 -39 -18 -39 -29 0 -14 13 -18 72 -22 39 -3
109 -3 154 0 69 4 83 8 87 23 4 13 0 19 -11 19 -26 0 -82 38 -82 55 0 9 19 61
41 116 l42 99 170 -2 170 -3 50 -114 50 -115 -23 -18 c-12 -10 -28 -18 -36
-18 -8 0 -14 -9 -14 -20 0 -19 7 -20 185 -20 179 0 185 1 185 20 0 11 -8 23
-17 26 -59 19 -77 31 -103 69 -31 45 -116 222 -281 585 -87 193 -100 215 -123
218 -23 3 -29 -3 -51 -54z m130 -474 c4 -13 -14 -15 -128 -13 -72 0 -131 4
-131 8 1 3 22 52 47 108 25 56 55 124 67 152 l21 50 60 -145 c32 -80 61 -152
64 -160z m92 21 c40 -90 72 -166 70 -168 -8 -7 -178 364 -177 384 1 14 31 -48
107 -216z"/>
</g>
</svg>
