<?xml version="1.0" standalone="no"?>
<svg version="1.0" xmlns="http://www.w3.org/2000/svg"
 width="501" height="501" viewBox="169.300 91.200 501.400 501.400" preserveAspectRatio="xMidYMid meet">
<defs>
<linearGradient id="iconNavy" gradientUnits="userSpaceOnUse" x1="0" y1="7851" x2="0" y2="3251">
<stop offset="0.00" stop-color="#2A364C"/>
<stop offset="0.12" stop-color="#213455"/>
<stop offset="0.25" stop-color="#1F3252"/>
<stop offset="0.38" stop-color="#203052"/>
<stop offset="0.50" stop-color="#1E3255"/>
<stop offset="0.62" stop-color="#22304D"/>
<stop offset="0.72" stop-color="#202E49"/>
<stop offset="0.82" stop-color="#1B2A4B"/>
<stop offset="0.92" stop-color="#1C2A47"/>
<stop offset="1.00" stop-color="#1C2747"/>
</linearGradient>
<linearGradient id="iconGold" gradientUnits="userSpaceOnUse" x1="0" y1="7851" x2="0" y2="3251">
<stop offset="0.00" stop-color="#FBDA95"/>
<stop offset="0.12" stop-color="#FCDE97"/>
<stop offset="0.25" stop-color="#FCDF97"/>
<stop offset="0.38" stop-color="#F9D992"/>
<stop offset="0.50" stop-color="#F1CC88"/>
<stop offset="0.62" stop-color="#DCB275"/>
<stop offset="0.72" stop-color="#DAB075"/>
<stop offset="0.82" stop-color="#D5AC75"/>
<stop offset="0.92" stop-color="#CAA16E"/>
<stop offset="1.00" stop-color="#BB9368"/>
</linearGradient>
</defs>
<style>
  .mark { fill: url(#iconNavy); }
  @media (prefers-color-scheme: dark) { .mark { fill: url(#iconGold); } }
</style>
<g class="mark" transform="translate(-580.529850,897.000000) scale(0.100000,-0.100000)" fill="url(#iconNavy)" stroke="none">
<path d="M10315 7809 c-160 -18 -390 -22 -546 -9 -144 11 -161 11 -184 -4 -14
-9 -25 -25 -25 -35 0 -25 31 -51 61 -51 46 0 112 -42 141 -90 50 -81 54 -159
64 -1158 5 -424 4 -672 -2 -672 -15 0 -262 226 -400 365 -123 124 -154 170
-154 223 0 36 13 48 63 57 44 8 63 35 47 65 -14 27 -59 33 -175 22 -154 -14
-411 -14 -613 -1 -209 15 -235 11 -240 -37 -3 -34 -1 -36 113 -69 150 -43 327
-171 716 -519 79 -71 203 -181 274 -245 195 -173 265 -243 265 -260 0 -23
-193 -207 -381 -362 -36 -30 -128 -108 -204 -174 -197 -171 -209 -181 -331
-272 -114 -85 -321 -198 -383 -209 -63 -12 -111 -41 -111 -69 0 -29 31 -40 95
-37 22 2 227 4 455 5 l415 2 3 28 c2 19 -2 29 -15 34 -85 30 -97 91 -35 170
78 97 519 508 588 546 13 8 15 -41 13 -425 -2 -480 -13 -877 -29 -1011 -18
-148 -70 -226 -176 -262 -57 -19 -59 -21 -59 -55 l0 -35 410 -1 c226 0 418 -4
427 -8 11 -5 23 -1 37 13 33 33 11 67 -55 86 -121 35 -156 102 -185 347 -17
146 -21 264 -26 753 l-6 580 50 -43 c92 -77 317 -284 424 -391 148 -149 171
-214 88 -256 -24 -13 -30 -22 -27 -43 3 -23 9 -28 43 -32 22 -3 128 -1 235 3
121 5 284 4 428 -3 270 -13 292 -11 292 30 0 34 -10 40 -109 74 -206 70 -399
209 -801 576 -69 63 -212 193 -318 288 -105 96 -192 180 -192 187 0 11 191
183 450 405 35 30 126 110 202 176 317 281 485 390 649 425 30 6 60 16 67 22
20 16 10 50 -18 65 -26 13 -45 13 -445 -4 -88 -4 -207 -2 -288 5 -157 13 -192
6 -192 -39 0 -20 8 -27 45 -40 39 -13 45 -20 48 -47 6 -64 -79 -163 -337 -392
-198 -176 -274 -240 -284 -241 -7 0 -7 508 1 732 l3 107 97 -6 c549 -32 907
330 786 794 -76 290 -384 464 -749 422z m176 -178 c105 -40 186 -135 223 -260
21 -72 21 -230 0 -302 -66 -221 -214 -326 -449 -317 l-80 3 -3 320 c-4 463 9
555 79 577 42 13 171 1 230 -21z m374 -175 c37 -65 58 -152 57 -239 -1 -82
-30 -198 -58 -232 -16 -20 -16 -20 -9 0 36 102 45 148 45 230 0 108 -18 184
-60 256 -18 29 -24 47 -15 39 9 -7 27 -32 40 -54z m-861 -416 c3 -173 9 -517
12 -765 4 -247 8 -477 10 -510 1 -33 3 -111 3 -173 l1 -114 29 19 c35 22 306
246 446 368 263 229 317 277 422 378 120 114 160 143 74 52 -161 -170 -419
-410 -751 -699 -69 -60 -147 -129 -173 -154 l-49 -44 -3 -227 c-13 -905 -19
-1183 -26 -1166 -4 11 -8 171 -8 356 -1 184 -3 344 -5 355 -2 10 -7 127 -10
259 -4 132 -9 268 -12 302 l-6 63 -96 -83 c-53 -45 -178 -150 -276 -232 -262
-218 -313 -263 -530 -474 -65 -64 -113 -107 -108 -95 13 24 378 384 538 529
137 124 351 315 420 375 45 39 53 51 58 90 3 25 8 221 11 435 4 215 8 458 10
540 3 83 4 327 5 544 0 217 2 392 4 390 3 -2 7 -146 10 -319z m-964 -778 c36
-26 148 -127 250 -227 102 -99 212 -205 245 -234 53 -48 55 -50 10 -16 -95 73
-180 150 -341 306 -88 86 -186 173 -217 194 -31 21 -57 40 -57 42 0 7 45 -19
110 -65z m1510 -1332 c58 -51 159 -148 225 -215 66 -66 157 -149 203 -183 46
-34 79 -62 74 -62 -28 0 -182 128 -352 293 -344 335 -371 365 -150 167z"/>
</g>
</svg>
