<?xml version="1.0" standalone="no"?>
<!DOCTYPE svg PUBLIC "-//W3C//DTD SVG 20010904//EN"
 "http://www.w3.org/TR/2001/REC-SVG-20010904/DTD/svg10.dtd">
<svg version="1.0" xmlns="http://www.w3.org/2000/svg"
 width="842.469565pt" height="729.000000pt" viewBox="0 0 842.469565 729.000000"
 preserveAspectRatio="xMidYMid meet">
<defs>
<linearGradient id="logo5Gold" gradientUnits="userSpaceOnUse" x1="0" y1="8989" x2="0" y2="1680">
<stop offset="0.00" stop-color="#DFB97A"/>
<stop offset="0.12" stop-color="#E5BF7E"/>
<stop offset="0.25" stop-color="#E3BB7A"/>
<stop offset="0.38" stop-color="#E4BC7A"/>
<stop offset="0.50" stop-color="#E5BD7A"/>
<stop offset="0.62" stop-color="#E1B877"/>
<stop offset="0.72" stop-color="#D5AA6A"/>
<stop offset="0.82" stop-color="#CEA161"/>
<stop offset="0.92" stop-color="#C59C62"/>
<stop offset="1.00" stop-color="#BE935A"/>
</linearGradient>
</defs>
<metadata>
Created by potrace 1.12, written by Peter Selinger 2001-2015
</metadata>
<g transform="translate(-580.529850,897.000000) scale(0.100000,-0.100000)"
fill="url(#logo5Gold)" stroke="none">
<path d="M7980 8927 c-118 -94 -244 -245 -309 -374 -92 -184 -118 -289 -128
-513 -8 -198 -25 -252 -129 -407 -42 -62 -78 -113 -81 -113 -3 0 -2 37 2 82 7
74 11 87 41 122 40 47 54 90 54 171 0 107 -58 187 -135 187 -82 0 -130 -73
-130 -197 0 -96 22 -147 79 -185 l38 -25 -6 -79 c-11 -130 -21 -158 -141 -390
-112 -217 -115 -220 -115 -174 0 31 16 95 45 178 64 187 79 275 79 460 -1 173
-14 263 -68 462 -42 152 -62 201 -78 196 -32 -11 -139 -241 -179 -383 -16 -61
-23 -118 -26 -240 -7 -212 10 -316 87 -545 75 -225 80 -262 44 -360 -15 -41
-53 -151 -85 -245 -66 -193 -66 -192 -48 70 28 388 -65 711 -291 1009 -95 126
-119 151 -130 140 -37 -37 -52 -391 -25 -579 35 -246 80 -364 243 -632 138
-229 148 -279 109 -523 -14 -85 -29 -193 -33 -240 -8 -100 -18 -84 -28 45 -28
362 -136 611 -358 821 -93 88 -152 128 -174 120 -15 -6 -16 -21 -11 -149 15
-317 115 -578 310 -809 79 -93 186 -238 208 -279 24 -48 45 -140 59 -264 7
-55 25 -172 42 -260 45 -244 45 -241 5 -165 -39 75 -59 130 -118 325 -51 171
-84 257 -154 397 -128 256 -269 405 -512 544 -75 43 -116 54 -127 35 -6 -10
79 -253 166 -476 56 -143 108 -251 168 -350 22 -36 40 -69 40 -73 0 -4 -12 -9
-26 -10 -33 -2 -51 -16 -70 -53 -34 -66 -8 -145 71 -218 86 -79 216 -118 310
-92 38 10 43 9 91 -24 58 -40 105 -93 186 -210 62 -90 94 -149 137 -258 17
-42 55 -132 86 -202 31 -70 54 -129 52 -131 -6 -6 -79 92 -112 151 -145 258
-404 479 -698 596 -104 42 -271 89 -281 79 -12 -12 87 -189 174 -312 36 -50
107 -136 159 -191 146 -152 285 -235 543 -325 219 -76 273 -113 367 -250 39
-58 70 -106 68 -108 -1 -2 -57 41 -124 95 -226 181 -482 293 -768 337 -97 14
-426 36 -434 29 -22 -23 166 -229 304 -333 93 -70 234 -138 353 -169 89 -24
120 -27 362 -32 l265 -6 68 -33 c66 -33 199 -143 180 -149 -5 -2 -60 19 -122
47 -173 77 -230 92 -346 93 -121 1 -217 -23 -349 -88 -154 -75 -166 -96 -80
-134 81 -36 169 -59 273 -72 131 -17 229 -3 387 52 115 41 116 41 195 30 43
-6 97 -20 118 -31 38 -19 161 -125 161 -139 0 -3 -35 -5 -77 -3 -65 3 -82 8
-103 27 -83 79 -236 70 -336 -18 -55 -49 -74 -84 -74 -139 0 -58 28 -100 85
-128 41 -20 58 -22 135 -18 71 4 97 10 132 31 71 42 108 93 108 152 0 30 27
39 95 30 73 -9 157 -52 246 -127 102 -86 209 -163 352 -255 64 -41 117 -79
117 -84 0 -13 2 -14 -101 35 -100 47 -274 104 -401 130 -261 54 -472 47 -953
-34 -33 -5 -61 -10 -62 -10 -2 0 -3 -6 -3 -13 0 -17 104 -101 216 -174 195
-127 441 -203 655 -203 121 0 255 28 444 92 282 96 358 94 625 -22 74 -32 144
-61 154 -64 37 -12 10 -15 -59 -6 -132 17 -367 12 -478 -11 -101 -20 -202 -52
-273 -85 -34 -16 -371 -202 -384 -211 -2 -2 1 -12 6 -21 22 -35 319 -105 494
-118 224 -15 439 53 695 221 186 122 249 140 370 107 184 -49 405 -116 405
-122 0 -3 -39 -21 -87 -39 -126 -48 -261 -119 -311 -165 -28 -26 -59 -73 -92
-138 -59 -117 -62 -138 -22 -138 30 0 170 64 285 132 94 55 299 156 422 208
l99 42 56 -17 c86 -27 307 -132 512 -242 194 -105 235 -123 274 -123 33 0 31
18 -15 113 -81 168 -126 206 -364 301 -81 33 -144 63 -140 67 11 8 395 119
458 131 81 16 134 -2 275 -92 163 -104 253 -150 375 -193 213 -74 425 -70 728
14 156 43 170 59 90 98 -27 13 -84 45 -128 71 -232 139 -409 201 -630 218 -98
8 -335 0 -375 -13 -45 -13 -8 12 50 35 30 12 107 45 170 73 l115 52 120 -1
c119 0 122 -1 285 -56 239 -81 305 -93 485 -92 126 1 165 5 246 27 131 34 238
78 344 142 127 75 278 196 263 210 -8 9 -362 64 -473 75 -319 29 -568 -6 -871
-123 -50 -19 -110 -45 -133 -56 -88 -45 -34 1 132 112 94 63 221 156 282 206
112 93 167 123 258 136 73 11 97 1 97 -39 0 -45 52 -113 109 -145 64 -35 202
-42 263 -12 79 38 111 127 73 200 -40 78 -156 141 -258 141 -53 0 -134 -32
-144 -56 -3 -7 -29 -15 -61 -19 -32 -3 -73 -8 -92 -11 l-35 -5 60 61 c87 89
130 108 276 124 24 3 73 -9 147 -34 161 -56 237 -67 377 -52 121 12 303 65
334 98 15 14 13 18 -19 45 -47 41 -180 103 -276 131 -60 17 -105 22 -184 22
-122 0 -156 -9 -335 -89 -70 -31 -128 -55 -131 -52 -11 11 118 115 182 147
l69 35 260 6 c260 7 328 16 444 55 126 42 258 126 400 253 89 79 181 188 181
213 0 17 -7 18 -72 14 -40 -3 -118 -8 -173 -11 -376 -22 -674 -131 -948 -346
-71 -55 -130 -99 -132 -97 -2 2 29 51 70 109 97 139 132 162 365 244 182 64
262 102 369 175 94 64 233 198 301 290 99 132 218 346 201 363 -10 10 -217
-53 -328 -101 -176 -76 -358 -202 -477 -333 -33 -35 -94 -118 -137 -184 -102
-157 -142 -211 -146 -199 -2 6 14 50 36 98 22 48 66 149 98 224 83 199 216
386 336 473 34 24 41 26 75 17 122 -34 323 57 383 173 38 76 16 158 -51 188
l-38 17 25 39 c34 56 105 197 138 275 36 85 205 561 205 578 0 27 -63 11 -139
-34 -226 -138 -370 -289 -489 -514 -69 -130 -112 -242 -177 -462 -53 -182 -96
-293 -130 -340 -15 -20 -16 -21 -11 -3 9 32 63 337 86 490 11 77 30 167 42
200 25 71 103 190 194 295 221 255 344 583 344 920 0 102 -21 101 -151 -6
-154 -128 -288 -328 -343 -515 -23 -74 -56 -281 -57 -354 -1 -33 -5 -73 -9
-90 l-7 -30 -6 35 c-3 19 -8 67 -11 106 -3 39 -15 122 -26 185 -39 221 -25
296 91 490 214 359 268 531 275 879 3 205 -20 370 -54 370 -10 0 -182 -234
-224 -305 -69 -116 -132 -284 -165 -438 -20 -90 -24 -347 -10 -557 l7 -115
-33 105 c-18 58 -54 165 -80 238 -67 191 -66 236 8 449 106 301 121 516 56
804 -26 114 -143 364 -172 364 -22 0 -47 -61 -85 -211 -58 -231 -67 -305 -61
-488 6 -185 19 -252 82 -426 30 -82 45 -139 44 -169 l0 -46 -33 70 c-18 39
-64 126 -102 195 -105 188 -108 198 -120 341 l-7 75 51 51 c42 42 52 59 62
108 33 160 -65 301 -173 250 -107 -51 -122 -295 -23 -373 19 -15 24 -30 29
-106 l6 -88 -68 95 c-120 170 -149 259 -151 462 -1 249 -99 502 -273 706 -67
78 -208 199 -232 199 -23 0 -28 -41 -16 -140 24 -192 68 -345 151 -515 54
-113 134 -238 174 -275 32 -29 126 -153 126 -166 0 -4 -61 52 -136 126 -96 96
-154 164 -200 234 -92 139 -161 223 -249 302 -137 123 -278 208 -441 267 -92
33 -296 76 -396 84 -72 6 -78 5 -78 -13 1 -35 134 -208 250 -325 165 -165 284
-239 550 -339 307 -115 345 -131 395 -165 56 -37 291 -263 282 -271 -3 -3 -38
22 -79 57 -299 253 -618 322 -1056 229 -41 -9 -52 -16 -52 -31 0 -44 267 -203
427 -253 149 -46 303 -66 521 -66 188 0 199 -1 250 -25 29 -13 75 -48 104 -77
68 -71 205 -256 181 -247 -114 47 -141 64 -147 93 -9 45 -85 112 -147 131
-119 35 -208 11 -230 -63 -30 -100 67 -194 226 -217 31 -5 51 -1 90 19 64 33
79 33 153 -5 102 -51 165 -130 272 -341 51 -99 90 -182 87 -184 -2 -3 -36 33
-75 78 -148 174 -266 272 -407 339 -110 52 -244 93 -375 114 -110 18 -462 24
-467 9 -11 -32 217 -247 342 -323 220 -133 363 -179 688 -220 246 -32 314 -76
375 -244 18 -49 32 -93 32 -98 0 -6 -30 17 -67 51 -92 84 -103 89 -103 49 0
-26 14 -46 83 -115 102 -102 129 -150 156 -279 43 -199 52 -289 57 -520 l4
-230 -19 50 c-10 28 -23 102 -30 165 -45 428 -170 690 -443 931 -43 38 -85 69
-93 69 -11 0 -15 -13 -15 -52 0 -94 27 -312 43 -351 9 -20 14 -37 11 -37 -7 0
-186 125 -301 211 -59 44 -112 79 -120 79 -21 0 -16 -65 17 -189 56 -213 128
-355 255 -504 114 -133 211 -205 424 -311 70 -36 142 -77 160 -91 74 -63 94
-160 66 -326 -16 -100 -71 -330 -99 -419 -12 -40 -14 -42 -19 -20 -39 199 -39
199 -17 234 41 67 23 213 -37 294 -72 97 -195 77 -224 -38 -30 -116 67 -300
158 -300 36 0 57 -87 57 -235 0 -134 -9 -163 -109 -366 -56 -115 -70 -130 -61
-71 56 375 7 684 -161 1002 -53 100 -252 402 -274 416 -20 12 -31 -14 -45 -98
-21 -128 -28 -321 -15 -423 27 -217 76 -341 238 -601 126 -201 148 -244 163
-322 22 -107 10 -163 -54 -256 -76 -111 -156 -212 -156 -197 0 7 5 44 12 82 8
50 16 73 30 80 34 18 60 88 66 176 6 96 -8 156 -48 212 -38 51 -79 68 -132 52
-138 -42 -171 -275 -57 -405 21 -24 51 -47 65 -50 26 -7 27 -9 21 -64 -2 -31
-19 -95 -38 -142 -32 -84 -35 -87 -193 -245 -143 -142 -246 -236 -246 -222 0
2 20 38 45 79 178 297 248 672 200 1068 -19 157 -44 292 -55 304 -13 14 -34
-7 -117 -119 -85 -114 -127 -191 -172 -319 -57 -160 -73 -255 -74 -416 0 -152
10 -218 60 -394 32 -112 28 -170 -16 -260 -28 -57 -42 -73 -119 -128 -124 -91
-286 -188 -312 -188 -7 0 -4 12 10 33 11 17 31 51 43 74 17 34 26 43 47 43 41
0 127 48 158 88 97 123 106 259 20 312 -40 24 -66 25 -116 5 -123 -52 -208
-241 -157 -349 18 -37 18 -40 0 -72 -36 -67 -124 -162 -193 -208 -67 -44 -208
-106 -414 -180 -54 -19 -98 -33 -98 -31 0 3 48 37 108 76 281 187 427 351 561
630 69 142 113 271 132 382 18 109 13 112 -108 47 -148 -79 -237 -144 -349
-255 -177 -177 -267 -341 -364 -661 -23 -77 -41 -116 -75 -161 -71 -96 -100
-110 -333 -170 -114 -28 -234 -60 -268 -69 l-61 -17 -234 63 c-254 68 -289 82
-351 138 -62 56 -84 98 -142 275 -30 89 -68 193 -86 231 -96 215 -255 402
-449 530 -112 73 -251 148 -266 142 -16 -6 -13 -40 12 -141 60 -250 181 -497
328 -670 65 -76 207 -197 330 -281 59 -40 112 -77 117 -82 12 -12 -221 70
-335 118 -152 63 -277 163 -342 274 l-28 48 18 50 c43 121 -23 270 -150 337
-59 31 -98 28 -143 -13 -36 -34 -37 -36 -36 -103 1 -125 81 -236 194 -271 58
-18 62 -21 105 -91 25 -40 45 -75 45 -77 0 -14 -195 98 -303 174 -88 61 -127
108 -157 188 -27 74 -26 101 15 261 61 243 65 342 24 566 -41 226 -142 435
-297 617 -38 43 -52 34 -63 -42 -46 -323 -51 -385 -46 -553 3 -93 13 -210 22
-258 31 -172 98 -343 195 -502 22 -36 36 -65 31 -65 -5 0 -58 43 -119 95 -111
95 -239 228 -276 286 -30 48 -76 190 -76 236 0 37 3 43 24 49 34 8 81 61 108
119 17 38 23 68 23 126 -1 104 -30 164 -98 198 -43 21 -53 22 -87 12 -63 -19
-113 -104 -126 -214 -8 -71 16 -156 60 -205 27 -30 34 -50 44 -112 6 -41 9
-76 8 -78 -6 -5 -142 182 -177 243 -32 56 -34 66 -33 145 2 126 27 182 180
416 144 218 216 427 230 670 10 175 -22 426 -56 431 -22 4 -238 -322 -304
-459 -92 -190 -149 -399 -162 -597 -6 -79 7 -280 23 -375 10 -61 -9 -38 -65
76 -84 176 -107 255 -107 383 0 111 18 214 39 220 6 2 22 6 37 9 70 15 139
137 139 247 0 72 -19 113 -62 135 -67 35 -148 -8 -195 -103 -38 -78 -40 -177
-4 -240 21 -37 22 -45 12 -71 -7 -17 -18 -63 -25 -103 l-13 -74 -21 65 c-25
74 -75 298 -93 412 -15 102 -9 182 21 241 30 60 48 73 225 162 169 85 256 145
351 242 74 75 173 212 216 298 83 165 155 455 114 455 -7 0 -58 -32 -112 -72
-146 -106 -308 -217 -311 -214 -2 2 1 16 7 32 29 75 52 404 29 404 -6 0 -30
-16 -53 -36 -306 -268 -432 -517 -476 -944 -11 -111 -35 -219 -50 -234 -15
-15 -2 394 16 509 27 174 66 349 86 389 11 21 54 73 95 116 42 43 80 84 84 92
10 15 12 58 3 58 -10 0 -90 -67 -130 -108 l-34 -35 15 49 c35 119 60 169 105
215 58 59 122 83 265 98 331 35 529 100 743 241 115 76 312 264 312 298 l0 23
-187 -6 c-208 -5 -239 -8 -363 -36 -180 -41 -325 -101 -429 -178 -73 -55 -223
-205 -295 -294 -25 -32 -46 -52 -46 -45 0 29 173 354 218 409 51 64 144 131
204 147 32 9 41 7 73 -16 60 -43 167 -31 256 27 76 51 104 133 65 193 -26 39
-67 52 -146 45 -106 -9 -199 -69 -218 -139 -4 -17 -14 -34 -22 -38 -8 -4 -39
-19 -69 -33 -30 -15 -56 -25 -58 -23 -10 9 110 169 177 236 104 105 122 110
367 110 366 0 584 61 849 236 79 52 104 79 87 95 -4 4 -39 14 -78 22 -300 65
-567 42 -788 -69 -88 -44 -157 -93 -281 -198 -96 -82 -48 -21 91 115 72 70
152 139 183 156 30 17 125 56 210 86 371 132 474 185 644 332 105 90 306 347
306 391 0 15 -9 16 -72 9 -92 -8 -281 -47 -373 -75 -90 -28 -230 -99 -324
-164 -146 -100 -262 -224 -398 -426 -38 -56 -271 -304 -330 -350 -26 -21 48
78 129 173 182 212 313 553 321 829 3 112 -4 117 -83 55z m-23 -159 c-93 -157
-195 -377 -328 -706 -18 -46 -35 -79 -37 -74 -7 23 160 437 239 590 21 40 34
70 29 67 -19 -12 -89 -143 -131 -243 -23 -56 -43 -101 -45 -99 -5 4 36 147 48
171 7 13 7 16 -1 11 -22 -13 -60 -102 -54 -125 4 -16 3 -21 -5 -16 -8 4 -10 2
-6 -7 5 -13 -52 -224 -63 -237 -7 -7 6 84 24 170 36 174 134 352 283 511 52
56 96 97 98 91 2 -6 -21 -53 -51 -104z m4296 -145 c87 -134 149 -285 167 -411
10 -69 12 -136 3 -97 -3 11 -18 66 -35 122 -16 56 -27 107 -23 113 3 5 1 10
-5 10 -6 0 -8 5 -5 11 7 10 -44 124 -52 116 -2 -3 5 -33 17 -67 26 -76 22
-115 -4 -45 -21 57 -78 174 -108 223 -40 64 -27 24 28 -93 98 -210 213 -499
201 -511 -2 -2 -12 17 -22 43 -94 250 -349 786 -386 809 -5 3 -9 13 -9 22 1
25 180 -164 233 -245z m-3334 86 c-164 -198 -313 -307 -545 -399 -42 -17 -81
-29 -87 -27 -6 2 12 11 39 21 79 30 318 150 306 154 -6 2 -51 -15 -99 -38 -86
-40 -209 -90 -222 -90 -6 1 137 71 338 166 63 30 112 57 109 60 -6 5 -52 -15
-240 -105 -210 -101 -120 -45 162 101 126 65 164 88 147 88 -4 0 -49 -21 -100
-47 -174 -89 -170 -85 51 62 89 59 161 110 158 112 -20 21 -551 -306 -866
-533 -57 -41 -61 -43 -35 -15 62 68 330 254 633 440 57 35 101 66 98 68 -6 7
-109 -46 -192 -99 -101 -64 -181 -109 -191 -106 -9 3 -71 -40 -115 -81 -15
-13 -30 -22 -34 -19 -5 5 124 119 200 176 59 44 14 21 -72 -37 -48 -32 -125
-94 -170 -137 -45 -44 -82 -75 -82 -70 0 20 181 185 261 239 157 104 281 152
524 203 61 12 111 23 113 23 1 1 -39 -49 -89 -110z m2206 91 c320 -63 489
-144 688 -330 42 -39 87 -86 99 -104 12 -17 -19 8 -70 56 -77 72 -272 219
-272 205 0 -2 44 -40 98 -85 92 -76 169 -150 117 -112 -11 8 -44 34 -72 58
-29 24 -57 40 -63 37 -6 -4 -78 35 -160 85 -141 85 -220 127 -220 115 0 -5 83
-59 222 -145 138 -86 346 -227 414 -282 112 -90 140 -128 39 -53 -247 183
-745 494 -835 520 -27 8 131 -104 269 -192 47 -29 82 -53 77 -53 -4 0 -62 29
-130 65 -118 63 -163 81 -121 50 10 -9 115 -66 232 -127 116 -62 211 -114 209
-115 -2 -2 -82 35 -179 83 -97 47 -182 84 -188 82 -10 -3 178 -100 345 -176
43 -20 74 -38 68 -40 -5 -1 -76 27 -157 64 -80 36 -149 64 -152 61 -6 -6 215
-118 320 -162 100 -42 74 -42 -34 0 -194 74 -325 161 -464 307 -78 81 -189
208 -183 208 2 0 48 -9 103 -20z m931 -32 c9 -29 29 -73 43 -98 30 -52 53
-100 46 -100 -2 0 -15 19 -29 43 -14 23 -26 38 -26 33 0 -9 95 -182 128 -233
8 -13 11 -23 8 -23 -3 0 -33 41 -66 92 -33 50 -60 84 -60 75 0 -9 33 -65 73
-124 108 -159 113 -172 22 -58 -26 33 -50 62 -53 65 -2 3 8 -19 22 -48 15 -29
49 -77 76 -107 63 -70 64 -80 3 -24 -62 56 -78 83 -124 204 -31 84 -89 306
-89 344 0 23 9 9 26 -41z m-4081 -102 c-14 -65 -44 -165 -67 -224 -35 -92 -50
-116 -101 -170 -74 -76 -88 -74 -19 3 27 31 62 79 77 108 32 59 28 56 -40 -30
-27 -34 -51 -60 -53 -58 -3 2 18 35 45 72 78 108 93 129 109 170 21 50 17 45
-54 -63 -58 -88 -109 -146 -59 -68 59 94 138 236 134 240 -2 2 -21 -23 -41
-56 -21 -33 -39 -60 -41 -60 -3 0 20 46 49 103 30 56 60 120 67 142 23 72 20
11 -6 -109z m5136 -617 c76 -227 93 -371 69 -569 -12 -92 -40 -203 -47 -182
-3 6 3 41 11 76 10 36 18 124 21 207 3 103 2 131 -5 99 -5 -25 -11 -96 -14
-158 -2 -63 -6 -116 -9 -118 -2 -2 -5 59 -6 137 -1 78 -3 145 -5 148 -2 3 -7
62 -11 131 -13 237 -20 225 -16 -27 4 -260 -13 -627 -30 -666 -7 -16 -8 -4 -4
43 13 184 17 597 6 726 -25 286 -23 271 -33 247 -7 -14 -7 -54 -1 -115 6 -59
6 -95 0 -99 -6 -4 -7 -39 -4 -85 6 -74 6 -77 -8 -49 -8 17 -14 60 -15 98 0 40
-4 67 -11 67 -13 0 -3 -121 18 -213 21 -93 10 -95 -18 -2 -12 41 -24 73 -26
71 -3 -2 5 -42 16 -88 25 -102 36 -188 24 -188 -5 0 -15 30 -23 68 -19 100
-31 119 -25 39 3 -38 15 -92 25 -120 25 -66 25 -95 -1 -42 -24 52 -24 28 0
-60 11 -38 18 -71 16 -73 -11 -12 -46 125 -55 217 -14 154 18 405 76 600 l17
55 14 -28 c8 -15 32 -81 54 -147z m-6111 155 c0 -3 16 -66 35 -140 54 -211 70
-395 47 -559 -9 -65 -38 -152 -47 -143 -2 2 5 37 15 78 23 87 26 138 4 68 -8
-26 -19 -50 -24 -53 -15 -9 -12 9 11 67 20 50 43 187 28 171 -3 -5 -15 -42
-25 -83 -19 -73 -19 -74 -22 -33 -2 24 6 76 17 116 27 95 26 131 -1 47 -25
-79 -35 -66 -14 18 9 33 15 93 15 133 l-2 74 -8 -80 c-4 -44 -12 -91 -18 -105
-12 -30 -16 65 -12 260 4 173 -15 147 -26 -35 -10 -166 -9 -791 0 -855 5 -30
4 -40 -2 -29 -18 29 -32 274 -34 579 -2 336 -10 315 -22 -58 -7 -220 -14 -266
-28 -207 -4 16 -5 16 -6 -5 0 -14 6 -47 14 -74 23 -76 18 -113 -6 -42 -55 169
-52 457 7 661 22 79 86 235 95 235 5 0 9 -3 9 -6z m5302 -58 c10 -19 10 -20
-6 -7 -9 8 -22 24 -28 35 -10 19 -10 20 6 7 9 -8 22 -24 28 -35z m-3693 -121
c51 -7 95 -16 98 -18 6 -7 -106 -73 -189 -111 -151 -70 -353 -116 -507 -116
-109 0 -90 17 22 19 173 3 288 29 142 32 -69 2 -61 3 50 9 187 11 223 31 45
26 l-135 -5 65 14 c36 8 79 14 96 15 45 0 217 31 234 41 11 7 8 8 -10 5 -47
-9 -164 -17 -159 -12 3 3 64 18 135 32 71 14 131 28 134 31 16 17 -360 -33
-473 -63 -79 -20 -273 -81 -300 -94 -21 -10 -21 -10 -4 4 23 18 231 93 312
112 188 43 226 53 185 48 -25 -2 -67 -8 -94 -13 -43 -7 -47 -7 -31 5 26 20 20
18 -68 -16 -89 -34 -100 -36 -72 -13 24 19 19 17 -104 -37 -51 -22 -95 -39
-97 -37 -7 7 178 94 236 112 142 43 328 55 489 30z m3138 4 c43 -5 110 -19
148 -31 68 -19 260 -106 252 -114 -5 -5 -116 40 -180 73 -27 13 -52 22 -55 19
-3 -3 -1 -6 4 -6 6 0 19 -7 30 -15 18 -13 17 -14 -11 -6 -16 5 -55 18 -85 30
-65 25 -70 26 -45 7 18 -13 15 -13 -25 -5 -25 5 -67 11 -95 14 -45 4 -47 4
-15 -5 19 -5 78 -18 131 -29 122 -25 389 -117 389 -134 0 -2 -44 12 -97 30
-198 70 -349 102 -585 126 -65 7 -114 9 -110 6 4 -4 68 -19 142 -34 74 -15
137 -30 140 -32 6 -6 -133 6 -165 13 -18 4 -18 4 -3 -6 9 -6 63 -17 120 -26
57 -8 139 -21 183 -29 l80 -14 -130 5 c-172 6 -135 -15 45 -26 108 -6 114 -7
46 -8 -44 -1 -77 -4 -74 -7 10 -10 118 -24 203 -26 47 -1 88 -6 91 -10 10 -16
-144 -9 -251 11 -144 28 -223 54 -336 109 -86 43 -181 100 -169 102 185 29
308 35 427 18z m-4405 -28 c32 -25 50 -88 42 -143 -12 -75 -22 -74 -18 3 4 69
3 72 -9 41 -7 -18 -16 -30 -20 -26 -4 4 -7 -6 -8 -22 -1 -49 -17 3 -19 61 -1
40 -3 46 -11 30 -7 -15 -8 -10 -5 20 2 22 2 34 -1 28 -2 -7 -9 -13 -14 -13 -6
0 -5 8 1 20 13 25 31 25 62 1z m5416 -6 c3 -17 1 -17 -7 -5 -8 11 -10 2 -6
-35 3 -39 2 -43 -4 -20 -9 32 -11 27 -17 -49 -4 -53 -14 -76 -14 -33 0 19 -4
25 -15 21 -12 -5 -15 2 -15 32 -1 33 -2 36 -11 21 -7 -11 -9 -43 -6 -75 4 -36
3 -50 -3 -37 -12 28 -12 99 1 132 24 64 89 96 97 48z m-6308 -394 c22 -33 40
-68 40 -78 0 -24 38 -142 39 -122 1 9 -6 38 -14 64 -8 27 -13 51 -11 53 6 6
75 -113 115 -200 22 -46 51 -121 65 -168 30 -99 59 -300 45 -315 -5 -5 -9 11
-10 40 0 28 -6 84 -14 125 l-13 75 -2 -60 c-2 -56 -3 -54 -16 46 -19 146 -32
177 -35 79 l-2 -75 -8 55 c-15 109 -28 166 -52 240 -29 87 -34 69 -12 -43 8
-43 15 -84 15 -90 0 -20 -20 17 -20 37 0 11 -11 42 -23 70 -13 28 -39 89 -58
136 -65 165 -38 51 55 -230 101 -304 142 -450 176 -623 25 -126 21 -169 -4
-52 -22 100 -88 340 -126 460 -51 161 -122 360 -131 369 -9 10 -3 -15 48 -189
20 -66 37 -136 38 -155 1 -19 11 -61 23 -93 12 -32 20 -63 16 -68 -3 -6 0 -17
8 -26 11 -14 11 -16 -1 -8 -11 6 -13 4 -6 -11 51 -123 55 -159 4 -47 -133 297
-146 274 -16 -29 25 -60 44 -108 41 -108 -8 0 -93 179 -127 270 -49 131 -65
208 -77 368 -12 158 -12 362 1 362 4 0 26 -27 49 -59z m7193 -43 c10 -203 -22
-455 -78 -611 -29 -81 -111 -257 -119 -257 -6 0 -5 4 54 145 46 111 72 187 65
193 -4 4 -95 -183 -95 -193 0 -12 -42 -97 -46 -93 -2 3 5 26 16 52 23 54 25
70 9 60 -8 -4 -8 0 0 15 7 11 15 21 20 21 4 0 14 12 21 28 28 62 100 245 100
255 -1 18 -35 -50 -70 -138 -36 -92 -60 -139 -66 -132 -2 2 9 35 25 73 16 38
32 80 35 94 l7 25 -15 -25 c-18 -30 -20 -22 -5 17 15 37 89 295 89 308 -2 66
-150 -385 -230 -700 -56 -216 -65 -216 -20 0 30 144 90 344 194 650 29 88 56
176 60 195 5 31 2 28 -20 -20 -14 -30 -35 -82 -46 -115 -11 -33 -25 -66 -31
-73 -5 -7 -16 -38 -22 -70 -10 -42 -13 -49 -14 -26 -1 27 11 108 25 174 4 16
2 22 -4 15 -16 -16 -41 -111 -63 -240 -11 -66 -23 -122 -26 -125 -2 -3 -2 33
1 80 l6 85 -15 -45 c-9 -25 -21 -79 -27 -120 -8 -54 -13 -69 -19 -55 -6 16 -8
13 -9 -15 -1 -19 -6 -44 -11 -55 -26 -59 24 191 59 295 24 70 103 227 131 260
l21 25 -15 -50 c-8 -27 -15 -57 -15 -65 1 -29 17 12 30 75 11 54 83 185 101
185 4 0 9 -46 12 -102z m-5849 -37 c16 -18 16 -20 -1 -36 -22 -23 -92 -55
-118 -54 -11 0 9 13 44 30 35 16 62 31 59 34 -3 3 -26 -4 -52 -16 -26 -11 -51
-17 -54 -13 -4 3 -1 9 6 11 14 5 17 33 3 33 -6 0 -13 -4 -16 -10 -3 -5 -11
-10 -16 -10 -18 0 3 22 35 36 45 19 90 17 110 -5z m4565 0 l35 -19 -35 -7
c-34 -8 -34 -8 -9 -17 14 -6 20 -12 13 -15 -7 -2 -33 5 -58 16 -25 11 -43 15
-39 9 4 -5 27 -19 53 -31 25 -11 40 -22 33 -24 -18 -7 -101 36 -113 59 -25 46
53 65 120 29z m-4589 -106 c0 -6 -56 -35 -67 -35 -4 0 6 9 22 20 29 19 45 25
45 15z m4556 -33 c-5 -4 -66 26 -66 33 0 3 16 -3 35 -12 19 -9 33 -18 31 -21z
m-4086 -101 c0 -24 -187 -177 -280 -229 -123 -69 -313 -124 -420 -121 -19 0
12 9 70 20 102 19 274 68 266 76 -2 2 -49 -6 -105 -17 -56 -12 -109 -19 -119
-17 -13 4 -12 5 4 6 12 0 37 8 55 16 l34 16 -35 -6 c-38 -5 6 12 212 83 165
57 207 82 63 37 -43 -13 -81 -22 -83 -20 -3 3 6 9 19 14 179 69 297 123 282
128 -14 5 -110 -29 -233 -82 -47 -20 -186 -77 -310 -126 -124 -49 -278 -115
-342 -147 -65 -31 -118 -55 -118 -51 0 8 134 83 215 120 83 37 319 132 460
184 55 20 105 41 110 47 7 6 5 7 -5 4 -8 -3 -71 -21 -140 -42 -69 -20 -138
-43 -155 -51 l-30 -16 20 24 20 23 -25 -17 c-32 -22 -152 -79 -157 -74 -7 8
165 106 225 127 34 13 61 24 59 26 -6 7 -178 -55 -214 -76 -19 -11 -39 -18
-44 -14 -11 7 -124 -62 -194 -119 l-50 -40 45 47 c45 47 158 124 215 146 196
77 324 108 490 119 162 12 195 12 195 2z m3930 -28 c74 -14 140 -28 145 -32 6
-4 46 -20 90 -35 105 -37 192 -85 251 -142 27 -25 35 -35 19 -22 -45 34 -175
111 -180 106 -3 -2 23 -25 57 -51 33 -26 57 -47 52 -47 -5 0 -34 21 -64 46
-55 46 -169 106 -225 118 -19 4 -5 -6 35 -27 79 -40 169 -97 155 -97 -6 0 -46
18 -89 39 -58 30 -73 34 -59 19 18 -21 18 -21 -12 -6 -39 20 -275 92 -281 86
-2 -3 17 -13 43 -23 339 -126 692 -283 724 -321 8 -10 -4 -6 -33 10 -62 34
-265 122 -498 216 -107 43 -222 90 -255 105 -62 28 -192 75 -207 75 -28 0 17
-24 137 -75 75 -32 134 -60 131 -62 -4 -4 -79 16 -126 34 -10 4 -12 2 -5 -5 6
-6 57 -26 115 -46 132 -45 268 -95 257 -96 -5 0 -81 23 -170 52 -89 28 -174
52 -188 52 -14 1 -41 13 -60 28 -45 33 -129 119 -129 130 0 15 232 -3 370 -29z
m-4665 -168 c-61 -53 -87 -63 -30 -11 28 25 55 45 60 45 6 1 -8 -15 -30 -34z
m4640 -18 c77 -25 165 -53 195 -61 l55 -16 -50 6 c-27 3 -85 14 -128 24 -44
10 -75 14 -70 10 14 -13 163 -56 253 -73 124 -23 133 -27 55 -21 -120 8 -202
31 -318 88 -98 48 -190 106 -147 93 8 -2 78 -25 155 -50z m-4500 -156 c-35
-14 -105 -22 -105 -12 0 9 38 16 100 19 22 1 23 0 5 -7z m4855 -12 c9 -5 -6
-6 -35 -2 -71 9 -101 23 -35 16 30 -3 62 -9 70 -14z m-5012 -26 c-21 -2 -57
-2 -80 0 -24 2 -7 4 37 4 44 0 63 -2 43 -4z m5160 0 c-10 -2 -26 -2 -35 0 -10
3 -2 5 17 5 19 0 27 -2 18 -5z m-6337 -326 c46 -51 90 -114 112 -159 39 -80
85 -228 93 -298 3 -37 0 -31 -20 35 -40 133 -125 335 -141 335 -3 0 5 -24 16
-52 32 -79 100 -281 96 -285 -2 -1 -14 21 -28 50 -13 28 -57 110 -98 182 -40
71 -93 170 -118 219 -24 48 -47 86 -50 83 -15 -15 101 -268 197 -430 83 -141
228 -487 218 -518 -2 -7 -15 14 -28 47 -54 135 -340 738 -347 731 -1 -2 8 -32
22 -67 26 -67 33 -99 13 -65 -14 24 -54 66 -43 45 4 -8 25 -38 46 -65 21 -28
42 -64 48 -80 l11 -30 -22 30 c-13 16 -34 41 -46 55 l-24 25 23 -40 c12 -22
41 -67 64 -100 23 -33 45 -67 49 -75 9 -18 -50 43 -82 85 l-23 30 21 -42 c11
-23 45 -70 75 -104 66 -74 74 -101 9 -32 -56 59 -41 24 25 -62 59 -76 71 -96
42 -70 -64 56 -169 245 -210 377 -27 91 -48 205 -57 313 l-7 90 44 -36 c24
-20 78 -75 120 -122z m7568 43 c-12 -129 -31 -214 -75 -337 -35 -99 -62 -153
-77 -153 -4 0 -5 -6 -1 -12 4 -7 3 -10 -1 -5 -5 4 -24 -7 -42 -25 -49 -47 -40
-24 16 41 26 31 56 72 65 91 l17 35 -28 -35 c-41 -51 -86 -97 -77 -80 4 8 30
49 59 90 59 86 82 125 66 116 -6 -4 -25 -27 -42 -51 -57 -80 -44 -37 15 51 32
46 56 87 53 90 -2 3 -15 -11 -27 -30 -12 -20 -23 -36 -25 -36 -2 0 7 28 21 62
13 34 22 63 20 65 -7 8 -266 -527 -312 -647 -29 -74 -50 -116 -52 -103 -7 49
133 370 242 556 32 54 73 132 92 173 40 86 85 214 76 214 -4 0 -43 -69 -86
-152 -44 -84 -100 -187 -126 -229 -25 -42 -54 -97 -64 -123 -10 -26 -20 -45
-22 -43 -5 4 90 277 107 309 6 11 8 22 5 25 -9 10 -83 -156 -121 -269 -36
-111 -45 -111 -19 -1 37 161 99 277 213 398 59 63 131 128 137 123 1 -2 -2
-51 -7 -108z m-6990 -120 c-52 -176 -105 -443 -120 -600 -37 -381 6 -820 115
-1191 143 -487 486 -1038 869 -1397 257 -241 546 -451 783 -570 373 -187 629
-278 1232 -438 105 -28 139 -41 125 -47 -32 -14 -606 150 -937 268 -393 140
-745 354 -1127 686 -134 116 -170 153 -315 319 -118 137 -201 247 -283 378
-470 745 -617 1624 -405 2421 30 114 94 314 99 309 2 -1 -14 -64 -36 -138z
m6304 -105 c64 -222 89 -359 108 -600 49 -602 -138 -1326 -481 -1866 -389
-613 -1044 -1148 -1705 -1392 -149 -55 -441 -148 -585 -185 -334 -88 -476
-128 -555 -157 -99 -36 -522 -221 -542 -237 -10 -8 -13 -4 -13 13 0 21 18 32
163 96 305 135 407 169 821 274 287 73 597 172 761 244 410 180 572 275 857
502 411 328 715 697 931 1129 151 301 202 450 267 774 54 269 63 385 57 680
-7 327 -27 458 -133 855 -4 15 -3 17 4 5 6 -8 26 -69 45 -135z m-292 -60 c52
-69 113 -195 138 -286 30 -108 25 -108 -18 1 -20 52 -46 111 -56 130 -33 63
-142 225 -166 245 l-23 20 19 -30 c70 -108 117 -196 153 -282 44 -104 104
-274 99 -280 -2 -1 -36 77 -76 175 -39 97 -99 226 -133 286 -33 60 -61 114
-62 121 -1 7 -14 29 -29 48 -15 20 -27 39 -27 44 1 11 135 -131 181 -192z
m-5641 118 c-98 -110 -207 -293 -256 -433 -28 -81 -31 -63 -4 32 41 147 111
267 226 388 87 91 113 101 34 13z m5546 -161 c-3 -2 -18 22 -35 54 -16 33 -30
55 -31 50 -1 -20 63 -125 74 -119 6 3 8 3 4 -1 -3 -4 11 -44 32 -89 68 -146
53 -136 -31 23 -46 85 -84 169 -84 185 -1 17 -5 41 -8 55 -4 14 13 -15 38 -64
25 -49 43 -91 41 -94z m-5525 82 c-21 -44 -26 -62 -15 -53 9 8 -16 -50 -57
-128 -40 -78 -75 -141 -76 -139 -5 4 28 87 82 206 31 69 64 142 73 164 9 21
18 34 20 27 2 -6 -10 -41 -27 -77z m-77 -51 c-35 -65 -96 -198 -136 -295 -39
-98 -73 -177 -74 -175 -5 5 43 150 85 259 46 117 166 328 187 328 1 0 -27 -53
-62 -117z m102 32 c-3 -8 -10 -15 -15 -15 -7 0 -6 10 1 26 12 26 25 16 14 -11z
m379 -37 c-48 -150 -116 -290 -193 -398 -76 -106 -294 -289 -384 -323 -35 -13
-17 3 45 39 85 49 190 125 183 131 -3 3 -23 -5 -44 -19 -46 -31 -142 -80 -142
-73 0 8 106 83 168 120 62 36 162 120 162 136 0 5 -25 -11 -55 -35 -60 -49
-143 -101 -151 -94 -2 3 31 34 73 70 95 80 162 146 205 201 38 49 52 58 -168
-120 -84 -68 -218 -192 -304 -280 -85 -87 -145 -143 -135 -124 28 48 221 248
308 317 147 119 180 151 256 244 68 84 141 185 166 230 12 22 -8 2 -94 -97
-76 -87 -296 -313 -305 -313 -3 0 27 41 67 91 40 50 81 105 92 122 39 62 -7
13 -119 -126 -63 -78 -129 -155 -147 -172 -39 -37 -29 -17 26 50 52 63 118
155 112 155 -10 0 -71 -65 -69 -73 1 -5 -2 -6 -7 -3 -11 7 -131 -128 -209
-236 -31 -43 -58 -75 -60 -73 -6 5 45 89 103 172 119 169 251 290 492 451 67
45 124 86 128 92 3 5 10 10 15 10 4 0 -3 -33 -15 -72z m4980 -163 c44 -34 104
-84 133 -110 62 -56 221 -263 258 -338 31 -62 30 -61 -32 23 -62 85 -205 250
-215 250 -5 0 -25 17 -45 38 -62 64 -9 -17 78 -119 26 -31 48 -60 48 -64 0
-15 -44 31 -145 155 -56 69 -115 136 -130 150 l-29 25 24 -35 c13 -19 52 -69
87 -111 35 -43 63 -81 63 -85 0 -15 -238 228 -322 328 -45 54 -84 96 -86 93
-7 -7 121 -185 195 -270 38 -44 122 -125 188 -180 142 -119 275 -249 333 -326
62 -83 51 -79 -26 8 -92 104 -210 215 -389 364 -208 175 -204 172 -166 124 56
-72 97 -113 188 -191 50 -42 92 -81 93 -86 6 -14 -99 51 -168 105 -36 28 -56
40 -45 27 34 -44 67 -70 196 -155 146 -96 173 -122 67 -66 -128 68 -158 87
-206 132 -95 91 -208 302 -266 499 l-14 48 126 -85 c70 -47 163 -114 207 -148z
m-5386 101 c-28 -77 -33 -67 -6 12 12 34 23 58 25 53 1 -4 -7 -34 -19 -65z
m6413 -208 c-35 -49 -97 -121 -85 -97 15 29 107 149 111 145 2 -3 -10 -24 -26
-48z m-7661 -34 c70 -54 209 -195 256 -261 53 -73 122 -206 164 -312 61 -154
45 -139 -29 26 -65 147 -94 202 -71 134 23 -67 1 -37 -35 48 -21 48 -48 101
-61 117 -18 21 -9 -6 31 -99 31 -71 54 -130 52 -133 -3 -2 -30 51 -62 118 -57
123 -119 220 -174 271 -35 33 -52 21 -26 -18 11 -17 20 -22 24 -15 4 7 14 1
25 -17 l18 -28 -21 19 c-33 29 -27 12 26 -67 81 -120 185 -296 242 -407 29
-58 59 -114 66 -125 8 -11 14 -23 14 -28 0 -20 -22 10 -66 91 -111 204 -386
651 -436 707 -58 66 -44 61 63 -21z m8042 23 c-22 -24 -48 -56 -58 -70 -9 -15
-21 -25 -25 -22 -5 3 -23 -13 -41 -35 -36 -45 -50 -47 -24 -3 l17 28 -26 -30
c-50 -57 -113 -160 -161 -263 -27 -56 -50 -101 -52 -99 -4 5 43 119 78 189 16
32 26 58 22 58 -11 0 -30 -31 -75 -120 -21 -41 -37 -65 -34 -52 7 36 -10 17
-29 -34 -28 -74 -125 -280 -125 -267 0 16 47 133 94 237 81 175 197 319 365
453 58 45 107 81 109 78 3 -3 -13 -24 -35 -48z m-8069 -104 c91 -140 176 -286
181 -312 4 -16 82 -158 194 -351 54 -92 110 -172 218 -310 28 -35 27 -35 -24
8 -95 78 -253 259 -348 397 -59 85 -144 261 -220 455 -31 80 -66 166 -76 193
-10 26 -16 47 -14 47 3 0 43 -57 89 -127z m8052 -44 c-179 -459 -241 -564
-489 -816 -135 -137 -187 -177 -99 -75 78 90 207 290 302 467 45 85 146 225
162 225 5 0 7 4 3 9 -3 5 0 13 5 16 6 4 15 17 21 28 5 12 17 33 26 47 10 13
12 21 5 16 -7 -4 -35 -41 -62 -81 -53 -78 -82 -108 -55 -56 42 81 237 392 243
387 1 -2 -27 -77 -62 -167z m-7956 19 c0 -6 -7 -5 -15 2 -8 7 -15 17 -15 22 0
6 7 5 15 -2 8 -7 15 -17 15 -22z m7848 -45 c-53 -81 -229 -381 -323 -548 -92
-165 -100 -167 -20 -5 92 184 206 378 338 573 54 81 59 64 5 -20z m-58 -32
c-29 -42 -34 -39 -8 4 11 20 23 34 25 31 3 -3 -5 -19 -17 -35z m-1137 -109
c29 -21 85 -58 125 -81 39 -24 72 -45 72 -47 0 -14 -176 92 -228 137 -46 41
-31 36 31 -9z m-5119 -452 c1 -295 -58 -501 -207 -728 -35 -53 -69 -106 -75
-117 -6 -11 -12 -16 -12 -12 0 12 39 87 70 132 40 59 116 202 97 185 -8 -8
-44 -61 -79 -116 -92 -148 -89 -144 -77 -109 15 44 76 151 127 223 45 63 96
161 89 168 -4 4 -66 -85 -126 -181 -19 -31 -36 -54 -38 -51 -8 8 41 100 113
212 29 45 85 169 69 153 -3 -4 -21 -32 -40 -63 -19 -31 -51 -82 -70 -113 -35
-57 -46 -59 -23 -6 6 15 40 71 74 123 34 52 65 109 69 125 4 22 -1 16 -18 -20
-13 -27 -36 -63 -50 -78 -15 -15 -34 -40 -43 -55 -8 -15 -13 -19 -10 -9 3 10
6 22 6 26 0 5 11 20 24 34 22 24 83 183 74 192 -2 2 -17 -30 -33 -72 -16 -42
-30 -72 -32 -66 -2 5 12 63 31 129 19 66 37 137 40 159 l6 40 -19 -40 c-11
-22 -20 -45 -20 -52 -1 -6 -26 -75 -56 -153 -81 -209 -130 -363 -187 -595 -19
-79 -45 -142 -32 -80 36 173 98 389 159 555 23 63 45 129 49 145 7 28 6 29 -7
10 -7 -11 -33 -69 -57 -128 -27 -68 -46 -104 -51 -96 -5 8 -11 -2 -18 -27 -5
-21 -19 -73 -30 -114 -10 -41 -20 -66 -21 -55 -2 24 -39 -119 -40 -155 0 -14
-5 -32 -10 -40 -27 -42 29 244 72 365 40 116 106 254 168 351 34 55 76 121 93
148 27 43 31 46 40 30 6 -11 11 -86 11 -174z m4799 176 c3 -8 36 -60 72 -115
158 -240 268 -515 280 -696 l4 -70 -13 65 c-8 36 -14 56 -15 46 -2 -34 -11
-10 -22 55 -13 79 -39 172 -47 165 -3 -3 -18 35 -34 85 -16 50 -32 89 -34 86
-3 -2 0 -16 6 -31 26 -69 6 -42 -25 33 -30 73 -55 118 -55 100 0 -9 56 -170
78 -226 23 -56 102 -333 122 -423 6 -30 14 -64 17 -75 3 -11 2 -17 -2 -13 -3
3 -19 56 -35 117 -16 61 -47 171 -69 244 -46 148 -210 591 -211 566 0 -13 70
-282 85 -327 3 -7 1 -11 -4 -7 -5 3 -21 35 -35 73 -24 62 -45 105 -46 91 0
-21 53 -153 79 -193 38 -60 42 -85 5 -30 -15 21 -32 43 -39 49 -7 5 -23 28
-35 50 -13 25 -19 31 -15 15 4 -14 8 -37 10 -51 7 -45 24 -81 95 -199 66 -109
106 -190 95 -190 -2 0 -14 19 -26 42 -18 36 -67 107 -133 193 -39 51 26 -77
78 -153 58 -86 131 -221 123 -228 -3 -3 -19 21 -37 53 -34 60 -119 183 -126
183 -7 0 25 -59 99 -178 38 -62 68 -115 65 -117 -6 -6 -126 178 -155 236 -99
206 -144 448 -128 684 6 98 15 125 28 91z m-6193 -250 c0 -5 -8 -3 -18 5 -10
8 7 -10 37 -39 51 -49 53 -52 21 -36 -44 21 -125 94 -105 94 8 0 15 5 15 10 0
13 49 -21 50 -34z m7590 23 c-12 -9 -11 -10 4 -5 47 16 75 -24 39 -56 -28 -25
-153 -91 -153 -81 0 5 18 20 41 32 50 29 109 79 109 94 0 6 -15 -3 -32 -19
-34 -32 -82 -64 -95 -64 -4 0 8 15 25 33 18 18 29 36 26 40 -4 4 4 15 17 26
13 11 26 17 29 15 2 -3 -2 -10 -10 -15z m-7644 -40 c10 -12 45 -39 77 -62 31
-22 57 -41 57 -43 0 -2 -22 6 -49 18 -51 21 -121 77 -121 97 0 17 15 13 36
-10z m7711 -56 c-9 -15 -28 -39 -43 -53 -27 -24 -27 -24 3 15 17 22 34 51 39
65 4 14 9 20 11 13 2 -6 -2 -24 -10 -40z m-7726 -33 c8 -9 21 -24 29 -35 10
-14 6 -12 -14 5 -30 27 -56 70 -56 92 1 7 7 -1 14 -17 7 -17 20 -37 27 -45z
m6713 45 c-21 -32 -16 -125 9 -174 23 -47 14 -50 -13 -6 -41 67 -38 205 6 205
12 0 12 -4 -2 -25z m-5736 -10 c14 -31 16 -58 3 -51 -5 3 -12 -9 -15 -27 -3
-19 -13 -42 -21 -53 -13 -18 -14 -18 -15 -1 0 10 -4 15 -10 12 -13 -8 -13 56
0 90 7 17 7 24 0 20 -6 -3 -10 -12 -10 -20 0 -8 -5 -17 -11 -21 -19 -12 1 39
23 59 28 24 43 21 56 -8z m33 9 c29 -36 -4 -177 -53 -220 -16 -15 -14 -9 8 34
31 59 43 147 25 181 -14 25 0 28 20 5z m5774 -9 c14 -13 25 -34 25 -47 0 -18
-4 -15 -20 17 -12 24 -18 30 -14 15 7 -34 15 -120 8 -95 -11 36 -27 43 -19 8
4 -21 3 -33 -4 -33 -6 0 -11 8 -11 18 0 14 -2 15 -10 2 -7 -11 -10 -4 -10 28
0 24 -5 42 -11 42 -14 0 -2 52 14 62 19 12 26 10 52 -17z m-6655 -70 c14 -8
21 -14 15 -14 -5 0 -21 6 -35 14 -14 8 -20 14 -15 14 6 0 21 -6 35 -14z m7470
6 c-8 -5 -26 -11 -40 -15 -21 -5 -20 -3 5 9 32 15 60 20 35 6z m-1217 -153
c20 -34 37 -69 37 -76 0 -17 -82 102 -110 160 l-21 43 29 -32 c15 -18 45 -61
65 -95z m155 -88 c0 -9 -3 -7 -8 5 -5 11 -8 29 -8 40 0 16 2 15 8 -5 4 -14 8
-32 8 -40z m-6549 -27 c162 -66 338 -167 338 -195 0 -8 23 -44 52 -81 29 -37
48 -67 42 -67 -6 0 -11 4 -11 8 0 12 -185 202 -196 202 -5 0 26 -37 69 -82 42
-45 77 -86 77 -91 0 -4 -53 41 -119 100 -160 145 -215 176 -81 44 58 -56 100
-100 94 -97 -7 3 -63 49 -125 101 -115 96 -157 121 -103 63 16 -18 -7 0 -50
40 -44 39 -82 69 -85 67 -10 -11 178 -181 304 -275 72 -53 219 -157 328 -230
193 -131 258 -185 135 -113 -130 75 -298 190 -458 311 -91 69 -172 129 -180
135 -22 14 64 -64 157 -143 123 -105 119 -112 -10 -22 -27 18 -51 32 -53 30
-5 -6 212 -179 256 -205 41 -24 132 -73 178 -97 19 -10 32 -20 29 -23 -9 -8
-191 83 -263 133 -106 72 -171 131 -251 227 -65 79 -213 288 -213 302 0 9 48
-6 139 -42z m7851 41 c0 -21 -105 -177 -184 -274 -99 -121 -187 -199 -311
-277 -60 -38 -204 -107 -210 -101 -2 2 37 26 88 52 51 27 115 65 142 84 80 56
226 175 221 180 -3 2 -20 -7 -38 -20 -43 -32 -108 -71 -108 -65 0 3 48 45 108
95 191 160 172 158 -48 -5 -226 -168 -375 -269 -475 -323 -54 -28 -57 -29 -30
-6 16 14 74 56 130 93 204 138 442 308 510 364 80 65 181 166 174 173 -3 3
-37 -24 -77 -60 -78 -69 -104 -84 -56 -32 l29 32 -45 -34 c-25 -19 -85 -68
-135 -108 l-90 -74 103 101 c56 56 98 101 94 101 -17 0 -98 -64 -202 -159
-114 -105 -117 -98 -6 17 39 39 67 72 62 72 -18 0 -89 -65 -147 -135 -33 -40
-67 -76 -76 -79 -8 -3 15 30 51 74 37 44 62 80 57 80 -5 0 -55 -48 -112 -107
-56 -60 -95 -97 -85 -83 9 14 20 34 25 45 11 26 91 100 169 158 73 53 275 158
382 198 79 30 90 32 90 23z m-7406 -315 c47 -44 88 -90 92 -101 4 -12 9 -16
13 -10 4 7 11 4 20 -9 10 -17 10 -20 -1 -13 -7 5 -16 9 -19 9 -3 0 -18 15 -33
32 -15 18 -31 32 -35 30 -5 -1 -39 31 -76 71 -37 39 -62 72 -57 72 6 0 49 -36
96 -81z m1312 -107 c108 -174 190 -395 195 -527 1 -27 -10 -121 -25 -208 -29
-169 -51 -247 -40 -142 24 237 29 300 26 379 -4 103 -21 100 -23 -4 0 -36 -7
-110 -14 -165 l-14 -100 4 210 c2 116 0 230 -4 255 l-8 45 -2 -56 c-2 -106
-14 -239 -21 -239 -4 0 -12 42 -19 93 -35 283 -80 511 -81 412 0 -16 7 -84 15
-150 8 -66 22 -199 30 -295 15 -169 70 -584 80 -601 3 -4 1 -10 -4 -13 -5 -3
-11 4 -14 17 -45 206 -64 338 -82 572 -17 218 -33 343 -46 365 -7 10 -8 -10
-3 -60 4 -41 8 -109 9 -150 2 -41 6 -100 9 -130 5 -55 5 -55 -14 19 -20 76
-37 112 -26 51 4 -19 16 -70 27 -112 26 -105 22 -129 -7 -43 -23 68 -23 69
-17 22 3 -27 23 -117 44 -200 20 -84 36 -153 34 -155 -5 -5 -51 149 -76 254
-19 81 -21 109 -16 304 4 197 24 421 37 420 3 -1 24 -31 46 -68z m4288 -362
l1 -225 -43 -159 c-24 -88 -48 -167 -53 -175 -9 -14 -10 -13 -5 2 26 82 98
418 92 425 -3 2 -12 -24 -22 -59 -26 -92 -29 -55 -4 57 24 114 20 138 -5 32
-10 -40 -20 -67 -22 -61 -3 7 7 59 21 116 27 108 34 160 11 92 -11 -37 -12
-31 -9 70 3 80 1 102 -6 81 -9 -28 -19 -121 -56 -511 -18 -193 -47 -371 -69
-418 l-15 -32 5 35 c42 270 61 422 75 600 6 74 19 205 30 290 23 179 24 193 9
167 -15 -26 -46 -193 -64 -347 -8 -74 -18 -151 -22 -170 -7 -33 -8 -32 -14 25
-4 33 -8 110 -9 170 -2 95 -3 105 -12 70 -6 -24 -8 -127 -4 -255 6 -241 -5
-243 -25 -4 -11 127 -15 151 -22 123 -14 -53 5 -372 29 -479 4 -18 2 -22 -6
-14 -6 6 -23 87 -38 180 -16 93 -31 162 -35 154 -4 -9 -5 -7 -2 5 2 11 11 61
19 111 27 160 112 363 204 489 l36 50 14 -105 c8 -60 15 -201 16 -330z m1105
340 c-13 -16 -25 -28 -27 -25 -5 5 37 55 45 55 2 0 -6 -13 -18 -30z m271 -5
c0 -4 -98 -72 -130 -90 -29 -16 -2 6 61 50 67 47 69 48 69 40z m-6970 -101 c0
-9 -59 29 -93 59 -22 20 -13 16 31 -13 34 -22 62 -43 62 -46z m992 -91 c55
-61 53 -197 -4 -272 -24 -31 -23 -14 2 40 11 25 19 64 19 89 l-1 45 -9 -42
c-9 -50 -47 -138 -55 -130 -3 3 1 18 9 34 8 15 18 38 21 51 11 35 -12 27 -28
-10 -17 -38 -21 -23 -6 18 9 22 8 29 -5 36 -9 5 -15 23 -15 43 0 18 -5 35 -12
37 -7 3 -2 12 12 26 18 16 27 19 41 11 25 -13 24 3 -1 26 -11 10 -20 22 -20
27 0 12 31 -5 52 -29z m4870 4 c-28 -30 -28 -35 1 -30 38 8 48 -16 32 -73 -24
-79 -23 -78 -40 -64 -20 17 -19 2 4 -60 11 -27 17 -50 14 -50 -8 0 -44 90 -52
133 l-9 42 -1 -50 c0 -30 7 -67 19 -94 22 -48 24 -55 11 -47 -23 15 -54 104
-53 156 0 83 39 160 79 160 14 0 12 -4 -5 -23z m-5019 -37 c-9 -22 -18 -38
-20 -36 -5 5 24 76 31 76 2 0 -3 -18 -11 -40z m5146 -9 c6 -19 11 -41 11 -50
-1 -13 -38 82 -40 99 -1 14 19 -20 29 -49z m-6495 -72 c-6 -11 18 -23 154 -74
111 -41 196 -66 487 -145 143 -38 315 -96 329 -110 6 -6 -12 -3 -39 5 -28 8
-151 42 -275 75 -232 62 -369 103 -477 145 -35 13 -63 23 -63 21 0 -7 111 -58
177 -81 77 -27 68 -31 -27 -10 -36 7 -66 12 -68 10 -8 -8 110 -44 178 -54 100
-16 213 -42 206 -48 -5 -5 -175 14 -211 24 -14 4 -17 2 -10 -5 9 -10 44 -17
250 -51 58 -10 57 -10 -24 -5 -46 3 -91 8 -100 11 -14 4 -14 3 -1 -5 15 -10
150 -36 243 -47 90 -12 42 -15 -70 -5 -175 16 -341 73 -483 169 -49 33 -238
201 -239 213 -1 4 15 0 34 -9 19 -9 32 -20 29 -24z m307 8 c111 -23 160 -37
155 -46 -3 -4 16 -18 42 -30 48 -23 172 -100 172 -107 0 -6 -38 12 -183 85
-69 36 -129 62 -133 58 -3 -3 35 -27 86 -52 51 -25 90 -48 88 -51 -5 -5 -92
25 -236 81 -52 20 -98 35 -104 33 -5 -2 33 -21 86 -42 53 -22 95 -41 93 -43
-11 -10 -377 124 -377 139 0 8 245 -12 311 -25z m6122 -9 c3 -21 2 -38 -4 -38
-5 0 -9 19 -9 42 0 49 5 47 13 -4z m1387 -40 c-222 -213 -393 -289 -700 -312
-82 -6 -49 9 40 18 36 4 90 13 120 21 l55 14 -90 -5 c-120 -5 -99 1 61 20 73
9 142 20 155 26 25 11 3 10 -156 -5 -45 -4 -54 -3 -37 5 22 9 56 16 212 42 64
10 175 46 168 54 -3 2 -37 -3 -77 -12 -41 -8 -75 -13 -78 -10 -5 5 114 47 139
49 9 1 14 5 12 9 -3 5 23 22 58 38 99 46 52 35 -58 -14 -119 -52 -174 -70
-409 -131 -99 -25 -220 -58 -268 -72 -49 -14 -90 -23 -93 -20 -11 11 129 54
510 157 81 22 199 60 262 85 62 25 119 45 126 45 7 0 27 9 43 20 31 21 28 27
-6 10 -10 -6 -19 -8 -19 -5 0 5 98 53 110 54 3 0 -33 -36 -80 -81z m-50 41
c-75 -35 -300 -113 -306 -106 -3 3 37 21 88 41 85 33 132 55 117 56 -12 0
-127 -42 -204 -75 -44 -18 -98 -36 -120 -40 -35 -5 -29 0 49 40 48 26 86 48
83 51 -7 8 -113 -39 -222 -97 -52 -28 -95 -48 -95 -45 0 9 92 69 160 104 36
18 54 30 40 26 -41 -11 -148 -61 -180 -84 -16 -12 -35 -18 -41 -14 -7 4 -9 3
-5 -4 3 -6 1 -14 -5 -18 -8 -5 -9 -3 -4 6 5 8 3 11 -6 8 -8 -3 -13 -10 -12
-16 2 -6 -4 -9 -12 -5 -9 3 -34 -7 -56 -22 -23 -14 -43 -24 -45 -22 -16 16
214 133 331 170 69 22 226 58 305 70 14 2 66 5 115 5 l90 1 -65 -30z m-7202
-65 c93 -37 196 -90 244 -125 56 -40 38 -37 -34 7 -32 20 -69 37 -81 38 -12 2
-40 14 -62 27 -22 14 -65 36 -95 48 -97 41 -73 45 28 5z m493 -26 c16 -31 17
-39 6 -30 -14 12 -41 72 -32 72 3 0 14 -19 26 -42z m5732 7 c-9 -19 -20 -35
-25 -35 -4 0 2 16 13 35 12 19 23 35 25 35 2 0 -4 -16 -13 -35z m-6043 -97 c0
-5 -11 -1 -25 8 -14 9 -25 18 -25 20 0 2 11 -2 25 -8 14 -6 25 -15 25 -20z
m5968 -20 c-8 -13 -21 -33 -29 -45 -8 -13 -17 -23 -21 -23 -4 0 7 20 24 45 33
46 52 63 26 23z m-4703 -282 c-14 -91 -43 -207 -44 -181 -1 6 8 64 18 130 11
66 24 152 28 190 l8 70 3 -54 c2 -30 -4 -100 -13 -155z m3830 -47 c9 -53 15
-105 13 -115 -7 -38 -40 164 -43 266 -3 103 -3 104 4 25 5 -44 16 -123 26
-176z m-3293 -31 c173 -108 360 -301 442 -458 34 -66 100 -240 93 -247 -3 -2
-23 40 -46 94 -37 86 -145 283 -156 283 -2 0 30 -75 71 -166 42 -91 73 -168
71 -171 -3 -2 -51 87 -107 199 -112 226 -177 318 -81 118 115 -243 116 -265 1
-50 -77 144 -145 243 -206 300 -44 41 -38 29 32 -65 54 -73 119 -177 149 -236
24 -46 13 -34 -106 121 -134 176 -240 310 -246 310 -5 0 -3 -4 80 -129 38 -57
70 -110 71 -117 1 -7 31 -50 67 -96 36 -46 117 -150 179 -233 62 -82 148 -193
190 -245 93 -115 109 -144 40 -70 -60 65 -223 271 -305 385 -31 44 -84 113
-118 154 -111 133 -127 154 -127 162 0 5 16 -8 36 -29 31 -32 29 -27 -17 40
-28 43 -59 84 -68 90 -9 7 -4 -3 10 -22 40 -55 45 -67 19 -45 l-24 20 17 -27
c9 -15 17 -33 17 -40 0 -13 118 -165 183 -238 18 -20 7 -11 -23 20 -31 30 -73
75 -94 100 l-37 45 23 -44 c13 -24 61 -83 107 -132 96 -102 98 -119 2 -26
l-64 62 32 -47 c17 -26 70 -80 117 -119 46 -39 82 -74 79 -77 -2 -3 -33 19
-67 48 -35 30 -72 61 -83 69 -19 15 -19 15 -5 -4 7 -11 52 -60 99 -109 76 -79
80 -84 28 -41 -62 51 -124 121 -151 170 -9 17 -30 52 -47 79 -44 71 -131 267
-133 297 -1 14 -6 32 -12 40 -11 14 -23 55 -28 95 -1 11 -6 25 -10 32 -13 21
2 14 106 -50z m2778 -19 c-39 -45 -123 -152 -188 -237 -147 -196 -147 -196
-121 -142 26 54 109 182 172 265 25 33 44 61 42 63 -5 6 -109 -108 -146 -162
-21 -28 -69 -113 -109 -188 -39 -76 -73 -138 -75 -138 -6 0 58 148 102 238 19
40 33 75 30 78 -8 9 -54 -75 -142 -260 -43 -92 -80 -164 -82 -162 -4 4 86 224
119 291 14 27 15 35 5 25 -26 -26 -114 -187 -148 -272 -43 -106 -49 -87 -8 26
60 166 201 359 356 487 67 55 238 168 256 169 4 0 -24 -37 -63 -81z m-4346 52
c11 -4 -28 -8 -87 -9 -93 -1 -187 -15 -187 -27 0 -2 24 -2 53 0 46 4 48 3 17
-5 -28 -7 -22 -8 30 -5 44 3 60 2 50 -5 -8 -5 -31 -10 -50 -10 -41 0 -260 -37
-268 -45 -10 -10 77 -5 176 9 130 19 322 28 402 18 l65 -8 -65 -7 c-36 -3
-154 -11 -264 -17 -253 -15 -306 -33 -71 -25 93 4 167 3 163 0 -3 -4 -62 -10
-130 -14 l-123 -8 105 -3 c92 -2 100 -3 65 -12 -64 -15 -200 -3 -292 26 -46
15 -83 31 -83 35 0 16 194 96 275 114 33 8 199 6 219 -2z m6130 -11 c42 -10
116 -38 164 -61 l87 -42 -90 -29 c-100 -33 -242 -47 -310 -30 -35 9 -26 10 70
12 l110 3 -118 7 c-65 5 -121 10 -123 13 -3 3 66 3 153 1 234 -7 172 12 -82
26 -116 6 -235 15 -265 19 l-55 7 95 8 c96 8 245 -2 430 -27 81 -12 129 -12
118 -2 -7 7 -240 45 -272 45 -19 0 -38 5 -42 11 -4 8 3 9 26 4 25 -5 31 -4 25
5 -6 10 6 11 51 6 40 -4 52 -3 37 3 -33 15 -194 30 -259 26 -44 -3 -51 -2 -29
4 57 16 198 12 279 -9z m-1740 -51 c-10 -30 -22 -57 -28 -61 -17 -11 -20 0 -5
19 11 15 10 15 -9 -1 -22 -19 -31 -43 -12 -31 6 3 10 1 10 -6 0 -8 4 -8 15 1
9 8 2 -19 -18 -66 -68 -158 -159 -324 -179 -324 -5 0 -42 -29 -80 -65 -39 -36
-76 -65 -82 -65 -11 1 4 16 104 105 58 52 110 112 110 128 -1 7 -24 -13 -53
-44 -29 -30 -63 -64 -77 -75 -13 -10 13 23 59 73 95 104 143 172 136 190 -2 7
11 36 30 65 35 53 44 75 25 63 -5 -3 -10 0 -10 7 -1 7 -12 0 -25 -17 -14 -16
-25 -34 -25 -40 1 -5 12 4 25 20 14 17 25 26 25 20 -1 -13 -38 -63 -125 -166
-39 -46 -104 -131 -145 -189 -95 -133 -254 -332 -314 -390 -56 -54 -61 -46 -8
13 57 63 222 271 354 447 64 85 132 171 152 189 39 38 50 66 14 35 -22 -19
-22 -19 -8 3 8 12 46 67 83 123 38 56 71 99 74 97 2 -3 -4 -29 -13 -58z
m-4436 34 c-21 -2 -57 -2 -80 0 -24 2 -7 4 37 4 44 0 63 -2 43 -4z m6040 0
c-21 -2 -55 -2 -75 0 -21 2 -4 4 37 4 41 0 58 -2 38 -4z m-4670 -269 c25 -18
52 -65 52 -91 -1 -11 -6 -5 -15 15 -17 38 -24 41 -17 7 4 -21 1 -24 -14 -19
-29 11 -55 36 -50 49 2 7 -2 12 -10 12 -17 0 -17 -2 1 -36 8 -16 28 -34 45
-41 16 -7 30 -17 30 -22 0 -5 -3 -8 -7 -6 -54 26 -69 38 -84 72 -15 35 -16 40
-1 57 20 23 40 24 70 3z m2889 -71 c-35 -43 -75 -87 -88 -98 l-23 -20 22 31
c11 17 28 37 38 44 9 8 36 40 61 73 25 32 47 56 50 53 3 -3 -24 -40 -60 -83z
m402 63 c7 -13 10 -33 7 -44 -9 -26 -51 -68 -76 -75 -31 -8 -24 9 10 23 34 14
63 54 57 78 -3 13 -6 11 -15 -10 -15 -36 -92 -78 -78 -43 3 8 3 15 0 15 -2 0
-9 -10 -14 -22 -7 -18 -9 -19 -9 -5 -2 43 52 107 90 107 8 0 21 -11 28 -24z
m-4295 1 c15 -11 11 -12 -26 -10 -41 2 -42 2 -10 -6 49 -13 53 -25 5 -17 -24
3 -44 2 -48 -4 -4 -6 7 -10 25 -10 21 0 30 -4 28 -12 -7 -20 -79 -56 -127 -64
-39 -6 -43 -5 -38 9 4 10 10 25 14 34 6 14 1 13 -22 -5 -32 -25 -42 -23 -26 6
33 62 179 113 225 79z m901 3 c-3 -5 -2 -26 4 -45 5 -21 6 -33 0 -30 -17 11
-9 -12 16 -50 31 -45 26 -59 -5 -15 -26 36 -41 150 -20 150 6 0 8 -4 5 -10z
m3445 -22 c0 -18 -8 -42 -17 -53 -14 -18 -15 -18 -9 -2 3 10 6 34 6 53 0 19 5
34 10 34 6 0 10 -15 10 -32z m1038 -2 c28 -14 60 -39 72 -56 25 -34 14 -39
-23 -10 -34 27 -43 25 -22 -6 9 -14 14 -28 11 -31 -16 -16 -166 43 -166 65 0
5 21 14 48 20 47 11 47 11 -23 7 -47 -3 -65 -1 -55 5 8 5 23 10 32 10 9 0 20
5 24 11 5 9 -4 10 -32 5 -29 -5 -35 -4 -24 4 23 16 102 4 158 -24z m-4279 -30
c22 -35 43 -116 31 -116 -4 0 -10 18 -13 41 -3 25 -18 56 -36 79 -17 22 -31
42 -31 46 0 12 29 -18 49 -50z m3041 13 c-16 -23 -32 -58 -36 -78 -4 -20 -11
-43 -15 -51 -15 -25 2 62 19 95 13 27 51 75 59 75 2 0 -10 -19 -27 -41z m186
-76 c-8 -16 -23 -36 -33 -44 -17 -13 -17 -13 -2 11 9 14 22 35 30 47 19 31 23
21 5 -14z m-3378 2 c15 -14 22 -25 16 -25 -6 0 -21 11 -34 25 -13 14 -20 25
-16 25 4 0 19 -11 34 -25z m-978 10 c0 -12 -83 -45 -112 -44 l-33 1 35 7 c19
4 49 14 65 23 32 17 45 21 45 13z m4314 -16 c-10 -11 -28 -25 -39 -31 -11 -5
-4 4 15 21 41 36 51 40 24 10z m1011 1 c22 -11 52 -20 67 -20 15 0 28 -4 28
-9 0 -14 -110 14 -128 33 -21 21 -14 20 33 -4z m-5225 -24 c0 -16 -56 -76 -71
-76 -6 0 6 16 26 37 19 20 35 40 35 45 0 4 2 8 5 8 3 0 5 -6 5 -14z m-306 -45
c-7 -9 -24 13 -24 32 0 21 1 21 13 -3 8 -14 12 -27 11 -29z m5431 0 l30 -34
-28 18 c-15 10 -32 26 -37 36 -12 21 -13 37 -2 24 4 -6 21 -25 37 -44z m270
11 c-15 -16 -16 -15 -4 12 7 15 15 23 17 16 3 -7 -3 -19 -13 -28z m-1636 -84
c-13 -25 -155 -165 -181 -179 -9 -5 29 38 85 95 56 57 103 104 105 105 1 1 -3
-9 -9 -21z m-3481 -173 c70 -14 177 -54 169 -61 -2 -3 -23 2 -46 11 -49 17
-202 47 -209 41 -2 -3 36 -17 84 -31 117 -35 118 -35 112 -40 -2 -2 -71 11
-153 31 -169 39 -239 42 -97 4 50 -14 87 -27 82 -28 -6 -2 -71 8 -145 23 -74
15 -139 25 -146 23 -6 -2 42 -17 107 -33 112 -28 116 -30 72 -33 -27 -2 -76 6
-115 17 -37 11 -99 23 -138 26 l-70 5 89 -19 c48 -11 91 -23 94 -26 10 -9
-192 2 -253 14 -75 14 -160 22 -149 12 12 -11 69 -26 194 -53 96 -20 136 -22
475 -24 417 -3 556 -8 578 -21 9 -4 -214 -8 -504 -8 -286 0 -509 -3 -497 -7
13 -4 79 -11 148 -16 90 -7 108 -10 65 -11 -33 -2 -82 -6 -110 -11 -44 -6 -38
-7 47 -9 54 0 141 3 195 8 168 17 259 21 243 12 -24 -14 -144 -31 -275 -40
l-120 -8 136 -2 c98 -1 170 5 254 19 65 12 119 19 122 17 7 -8 -134 -39 -261
-58 l-121 -18 130 4 c88 3 169 12 249 29 66 14 121 24 123 22 7 -7 -79 -37
-166 -57 -251 -60 -561 -5 -816 146 -162 95 -188 115 -151 115 8 0 76 9 153
21 278 42 470 46 621 14z m5112 -11 c96 -14 181 -27 189 -30 38 -13 -252 -169
-415 -223 -173 -57 -302 -71 -459 -48 -117 18 -260 56 -238 64 7 2 58 -5 115
-18 67 -14 149 -23 233 -25 l130 -3 -105 14 c-111 15 -244 44 -236 52 2 3 46
-2 98 -11 125 -21 310 -31 333 -19 12 7 -13 12 -91 16 -60 3 -145 11 -189 19
l-80 13 60 3 c33 2 101 -1 152 -7 50 -6 142 -10 205 -10 122 2 116 5 -32 17
l-95 8 144 8 c79 4 152 11 162 14 10 4 -218 7 -506 7 -352 0 -518 3 -507 10
10 6 207 13 492 17 261 3 489 9 505 13 17 4 62 13 100 21 39 7 90 20 115 28
l45 14 -45 1 c-25 0 -65 -4 -90 -9 -25 -5 -97 -12 -160 -15 -123 -5 -124 2 -2
29 l67 15 -70 -4 c-38 -3 -99 -14 -133 -25 -35 -11 -85 -20 -110 -19 -43 1
-37 3 61 29 102 26 139 40 106 40 -8 0 -68 -11 -134 -25 -154 -32 -184 -31
-71 3 50 14 84 28 78 30 -12 4 -161 -26 -271 -54 -88 -22 -70 -8 26 21 48 14
97 30 108 35 19 8 19 9 -2 9 -32 1 -153 -26 -195 -43 -54 -23 -71 -19 -19 4
161 73 386 84 731 34z m-1310 -88 c-21 -20 -130 -79 -136 -73 -4 4 133 85 146
87 2 0 -2 -6 -10 -14z m-3032 -20 c26 -14 56 -32 67 -41 19 -15 -84 33 -115
54 -27 19 0 11 48 -13z m167 -315 c40 -5 23 -8 -92 -14 -173 -9 -229 -24 -98
-26 147 -3 116 -16 -38 -16 -91 -1 -149 -5 -162 -13 -16 -9 -1 -12 85 -13 98
-1 101 -2 50 -10 -251 -40 -344 -58 -337 -65 3 -3 54 2 115 11 152 22 210 16
77 -9 -140 -25 -176 -36 -100 -31 97 7 19 -11 -124 -29 -68 -9 -129 -20 -135
-25 -17 -13 -56 -20 -56 -10 0 5 4 9 10 9 5 0 49 23 97 52 237 140 519 216
708 189z m2815 -1 c150 -19 302 -67 456 -145 77 -39 152 -79 165 -88 l23 -17
-26 0 c-14 0 -28 4 -30 10 -1 5 -61 16 -133 25 -138 17 -210 35 -115 29 38 -3
14 5 -80 25 -132 28 -132 39 0 22 36 -5 90 -12 120 -15 l55 -6 -45 14 c-59 19
-267 56 -310 56 -18 0 -31 2 -28 5 3 3 45 6 94 6 72 0 85 3 69 12 -12 7 -72
12 -157 12 -76 0 -138 3 -138 8 0 4 42 7 93 8 155 1 27 26 -153 30 -51 1 -59
3 -35 9 44 11 81 11 175 0z m-2530 -38 c0 -5 -29 -14 -65 -20 -35 -7 -147 -38
-247 -69 -344 -106 -456 -133 -565 -140 -63 -4 -100 -10 -96 -16 15 -25 334
22 458 68 14 6 17 5 10 -2 -14 -15 -119 -51 -195 -67 -45 -10 -55 -15 -33 -15
57 -2 136 20 272 76 73 30 135 52 137 50 7 -6 -188 -96 -244 -113 -70 -20 -63
-28 8 -9 67 17 161 55 252 101 37 19 73 34 80 34 7 0 4 -5 -7 -11 -11 -6 -49
-28 -85 -49 -36 -21 -87 -46 -113 -55 -30 -12 -44 -21 -36 -26 22 -13 -82 -24
-231 -23 -110 0 -170 6 -249 23 -144 31 -153 39 -43 40 119 1 281 36 520 110
214 68 289 88 387 106 89 17 85 16 85 7z m2265 -29 c55 -13 170 -47 255 -74
229 -74 387 -110 513 -116 59 -3 104 -9 100 -13 -11 -10 -128 -36 -226 -51
-102 -16 -271 -6 -372 21 -76 20 -292 116 -283 126 3 2 52 -18 109 -45 57 -28
113 -50 124 -50 11 0 51 -9 90 -20 38 -12 74 -20 79 -18 6 2 -19 11 -55 21
-63 17 -303 125 -295 133 2 2 66 -21 142 -51 170 -66 246 -87 344 -92 l75 -3
-59 9 c-110 18 -296 78 -296 96 0 3 4 3 9 0 4 -3 65 -21 135 -40 146 -40 361
-66 392 -47 15 8 7 10 -42 11 -118 0 -244 29 -584 136 -63 19 -166 48 -229 64
-62 16 -116 32 -120 36 -10 10 87 -6 194 -33z m-1086 -87 c-2 -2 -68 -27 -146
-55 -78 -29 -186 -70 -240 -92 -123 -50 -134 -54 -103 -35 91 55 528 218 489
182z m-1349 -21 c0 -9 -128 -75 -194 -99 -92 -35 -109 -33 -21 2 39 16 102 45
140 65 74 39 75 39 75 32z m-782 -72 c-10 -2 -26 -2 -35 0 -10 3 -2 5 17 5 19
0 27 -2 18 -5z m2324 -32 c193 -74 263 -108 266 -130 3 -18 -14 -12 -135 44
-208 98 -259 124 -246 124 7 1 59 -17 115 -38z m1686 32 c-10 -2 -26 -2 -35 0
-10 3 -2 5 17 5 19 0 27 -2 18 -5z m-2398 -107 c0 -5 -130 -66 -139 -66 -8 1
121 69 132 70 4 0 7 -2 7 -4z m885 -57 c6 -7 0 -6 -18 0 -37 14 -87 40 -87 46
0 6 93 -35 105 -46z m-1170 -62 c-14 -38 -95 -135 -95 -114 0 3 14 30 31 59
67 114 96 139 64 55z m1378 -41 c35 -56 42 -74 28 -66 -30 15 -72 71 -86 114
-21 59 4 39 58 -48z"/>
<path d="M8485 8613 c-76 -52 -132 -98 -95 -78 12 7 161 108 179 122 2 2 2 5
0 7 -2 2 -40 -21 -84 -51z"/>
<path d="M11464 8661 c4 -6 49 -39 99 -73 51 -34 85 -53 77 -44 -8 10 -46 40
-85 65 -93 63 -100 67 -91 52z"/>
<path d="M13143 7760 c0 -25 2 -35 4 -22 2 12 2 32 0 45 -2 12 -4 2 -4 -23z"/>
<path d="M6893 7745 c0 -22 2 -30 4 -17 2 12 2 30 0 40 -3 9 -5 -1 -4 -23z"/>
<path d="M6872 7580 c1 -71 4 -116 9 -105 4 11 8 14 8 6 1 -8 3 -12 5 -10 2 2
-2 56 -9 119 l-13 115 0 -125z"/>
<path d="M6452 7230 c11 -28 23 -48 25 -46 5 5 -34 96 -41 96 -3 0 5 -23 16
-50z"/>
<path d="M6476 7080 c33 -98 81 -197 90 -187 2 2 -11 39 -30 83 -18 43 -41
100 -50 125 -35 97 -44 79 -10 -21z"/>
<path d="M13571 7229 c-12 -28 -20 -53 -18 -55 2 -3 14 18 26 47 12 28 20 53
18 55 -2 3 -14 -18 -26 -47z"/>
<path d="M7815 7195 c-27 -13 -43 -24 -35 -24 8 0 35 11 60 24 58 31 41 31
-25 0z"/>
<path d="M7890 7080 c-80 -26 -137 -48 -127 -49 18 -1 250 74 277 90 28 16 -5
7 -150 -41z"/>
<path d="M12209 7190 c34 -17 68 -29 74 -27 5 1 -14 12 -44 24 -88 34 -98 35
-30 3z"/>
<path d="M6290 6514 c0 -13 93 -204 97 -200 6 6 -77 195 -88 202 -5 3 -9 2 -9
-2z"/>
<path d="M13711 6471 c-40 -78 -73 -162 -67 -168 6 -6 59 98 85 168 28 73 18
73 -18 0z"/>
<path d="M7525 6078 l-50 -52 52 43 c55 45 70 61 56 61 -5 0 -31 -23 -58 -52z"/>
<path d="M12485 6090 c27 -27 51 -50 54 -50 3 0 -17 23 -44 50 -27 28 -51 50
-54 50 -3 0 17 -22 44 -50z"/>
<path d="M6063 5748 c22 -35 22 -44 0 -27 -10 8 11 -19 47 -58 35 -40 65 -73
66 -73 4 0 -108 164 -119 175 -6 6 -3 -2 6 -17z"/>
<path d="M6150 5543 c12 -22 40 -60 62 -84 37 -42 36 -40 -13 34 -57 85 -85
114 -49 50z"/>
<path d="M6186 5450 c31 -61 227 -330 241 -330 8 0 -178 268 -213 307 -20 21
-32 31 -28 23z"/>
<path d="M13854 5518 c-48 -66 -68 -98 -60 -98 7 0 90 110 105 138 22 41 2 23
-45 -40z"/>
<path d="M13822 5433 c-55 -70 -223 -315 -219 -320 12 -11 180 219 251 345 14
25 -3 11 -32 -25z"/>
<path d="M7851 4044 c15 -57 20 -64 14 -20 -2 22 -9 44 -14 49 -7 7 -7 -3 0
-29z"/>
<path d="M10315 7809 c-160 -18 -390 -22 -546 -9 -144 11 -161 11 -184 -4 -14
-9 -25 -25 -25 -35 0 -25 31 -51 61 -51 46 0 112 -42 141 -90 50 -81 54 -159
64 -1158 5 -424 4 -672 -2 -672 -15 0 -262 226 -400 365 -123 124 -154 170
-154 223 0 36 13 48 63 57 44 8 63 35 47 65 -14 27 -59 33 -175 22 -154 -14
-411 -14 -613 -1 -209 15 -235 11 -240 -37 -3 -34 -1 -36 113 -69 150 -43 327
-171 716 -519 79 -71 203 -181 274 -245 195 -173 265 -243 265 -260 0 -23
-193 -207 -381 -362 -36 -30 -128 -108 -204 -174 -197 -171 -209 -181 -331
-272 -114 -85 -321 -198 -383 -209 -63 -12 -111 -41 -111 -69 0 -29 31 -40 95
-37 22 2 227 4 455 5 l415 2 3 28 c2 19 -2 29 -15 34 -85 30 -97 91 -35 170
78 97 519 508 588 546 13 8 15 -41 13 -425 -2 -480 -13 -877 -29 -1011 -18
-148 -70 -226 -176 -262 -57 -19 -59 -21 -59 -55 l0 -35 410 -1 c226 0 418 -4
427 -8 11 -5 23 -1 37 13 33 33 11 67 -55 86 -121 35 -156 102 -185 347 -17
146 -21 264 -26 753 l-6 580 50 -43 c92 -77 317 -284 424 -391 148 -149 171
-214 88 -256 -24 -13 -30 -22 -27 -43 3 -23 9 -28 43 -32 22 -3 128 -1 235 3
121 5 284 4 428 -3 270 -13 292 -11 292 30 0 34 -10 40 -109 74 -206 70 -399
209 -801 576 -69 63 -212 193 -318 288 -105 96 -192 180 -192 187 0 11 191
183 450 405 35 30 126 110 202 176 317 281 485 390 649 425 30 6 60 16 67 22
20 16 10 50 -18 65 -26 13 -45 13 -445 -4 -88 -4 -207 -2 -288 5 -157 13 -192
6 -192 -39 0 -20 8 -27 45 -40 39 -13 45 -20 48 -47 6 -64 -79 -163 -337 -392
-198 -176 -274 -240 -284 -241 -7 0 -7 508 1 732 l3 107 97 -6 c549 -32 907
330 786 794 -76 290 -384 464 -749 422z m176 -178 c105 -40 186 -135 223 -260
21 -72 21 -230 0 -302 -66 -221 -214 -326 -449 -317 l-80 3 -3 320 c-4 463 9
555 79 577 42 13 171 1 230 -21z m374 -175 c37 -65 58 -152 57 -239 -1 -82
-30 -198 -58 -232 -16 -20 -16 -20 -9 0 36 102 45 148 45 230 0 108 -18 184
-60 256 -18 29 -24 47 -15 39 9 -7 27 -32 40 -54z m-861 -416 c3 -173 9 -517
12 -765 4 -247 8 -477 10 -510 1 -33 3 -111 3 -173 l1 -114 29 19 c35 22 306
246 446 368 263 229 317 277 422 378 120 114 160 143 74 52 -161 -170 -419
-410 -751 -699 -69 -60 -147 -129 -173 -154 l-49 -44 -3 -227 c-13 -905 -19
-1183 -26 -1166 -4 11 -8 171 -8 356 -1 184 -3 344 -5 355 -2 10 -7 127 -10
259 -4 132 -9 268 -12 302 l-6 63 -96 -83 c-53 -45 -178 -150 -276 -232 -262
-218 -313 -263 -530 -474 -65 -64 -113 -107 -108 -95 13 24 378 384 538 529
137 124 351 315 420 375 45 39 53 51 58 90 3 25 8 221 11 435 4 215 8 458 10
540 3 83 4 327 5 544 0 217 2 392 4 390 3 -2 7 -146 10 -319z m-964 -778 c36
-26 148 -127 250 -227 102 -99 212 -205 245 -234 53 -48 55 -50 10 -16 -95 73
-180 150 -341 306 -88 86 -186 173 -217 194 -31 21 -57 40 -57 42 0 7 45 -19
110 -65z m1510 -1332 c58 -51 159 -148 225 -215 66 -66 157 -149 203 -183 46
-34 79 -62 74 -62 -28 0 -182 128 -352 293 -344 335 -371 365 -150 167z"/>
<path d="M8556 5936 c-8 -6 -28 -47 -45 -92 -16 -44 -63 -154 -104 -245 -41
-90 -87 -193 -102 -229 -68 -164 -121 -235 -197 -263 -10 -3 -18 -16 -18 -27
0 -20 4 -20 147 -18 123 3 148 6 151 18 1 10 -13 23 -40 35 -29 13 -44 27 -46
42 -3 22 50 166 70 190 8 10 47 13 165 11 l155 -3 50 -108 c53 -114 53 -132 5
-139 -14 -2 -23 -11 -25 -25 -3 -22 -2 -22 163 -25 92 -2 173 1 181 5 26 15
14 36 -38 64 -48 26 -56 36 -110 138 -58 111 -160 327 -259 552 -54 122 -72
143 -103 119z m40 -371 c35 -74 64 -138 64 -140 0 -3 -56 -5 -125 -5 -69 0
-125 4 -125 8 0 5 22 60 49 123 27 63 52 124 56 137 4 13 9 21 12 18 3 -3 34
-66 69 -141z m121 -69 c29 -65 51 -121 49 -123 -3 -3 -13 12 -24 34 -28 55
-122 273 -122 281 1 12 40 -66 97 -192z"/>
<path d="M11323 5940 c-53 -11 -96 -33 -157 -82 -102 -80 -146 -174 -146 -310
0 -71 4 -92 30 -146 35 -74 115 -158 178 -186 65 -29 53 -39 -41 -34 -94 6
-117 15 -137 53 -8 14 -21 24 -29 23 -14 -3 -15 -18 -12 -98 2 -52 5 -98 8
-102 5 -10 139 -10 263 -1 l92 6 -4 74 -5 74 -52 46 c-59 52 -85 97 -106 185
-33 140 -7 270 69 355 31 34 58 53 88 62 51 16 124 16 164 1 98 -37 162 -184
152 -346 -8 -113 -38 -187 -103 -249 l-53 -50 -4 -79 -3 -79 172 -4 c94 -2
173 -1 176 4 3 4 6 51 8 103 3 78 1 95 -11 97 -8 2 -25 -12 -37 -31 -14 -22
-32 -35 -53 -40 -42 -8 -165 -8 -173 0 -4 4 19 19 51 34 247 117 284 468 67
641 -81 65 -154 89 -264 88 -47 -1 -105 -5 -128 -9z"/>
</g>
</svg>
