<?xml version="1.0" standalone="no"?>
<!DOCTYPE svg PUBLIC "-//W3C//DTD SVG 20010904//EN"
 "http://www.w3.org/TR/2001/REC-SVG-20010904/DTD/svg10.dtd">
<svg version="1.0" xmlns="http://www.w3.org/2000/svg"
 width="384.2000pt" height="460.0000pt" viewBox="228.5000 111.9000 384.2000 460.0000"
 preserveAspectRatio="xMidYMid meet">
<metadata>
Created by potrace 1.12, written by Peter Selinger 2001-2015
</metadata>
<g transform="translate(-580.529850,897.000000) scale(0.100000,-0.100000)"
fill="#000000" stroke="none">
<path d="M10315 7809 c-160 -18 -390 -22 -546 -9 -144 11 -161 11 -184 -4 -14
-9 -25 -25 -25 -35 0 -25 31 -51 61 -51 46 0 112 -42 141 -90 50 -81 54 -159
64 -1158 5 -424 4 -672 -2 -672 -15 0 -262 226 -400 365 -123 124 -154 170
-154 223 0 36 13 48 63 57 44 8 63 35 47 65 -14 27 -59 33 -175 22 -154 -14
-411 -14 -613 -1 -209 15 -235 11 -240 -37 -3 -34 -1 -36 113 -69 150 -43 327
-171 716 -519 79 -71 203 -181 274 -245 195 -173 265 -243 265 -260 0 -23
-193 -207 -381 -362 -36 -30 -128 -108 -204 -174 -197 -171 -209 -181 -331
-272 -114 -85 -321 -198 -383 -209 -63 -12 -111 -41 -111 -69 0 -29 31 -40 95
-37 22 2 227 4 455 5 l415 2 3 28 c2 19 -2 29 -15 34 -85 30 -97 91 -35 170
78 97 519 508 588 546 13 8 15 -41 13 -425 -2 -480 -13 -877 -29 -1011 -18
-148 -70 -226 -176 -262 -57 -19 -59 -21 -59 -55 l0 -35 410 -1 c226 0 418 -4
427 -8 11 -5 23 -1 37 13 33 33 11 67 -55 86 -121 35 -156 102 -185 347 -17
146 -21 264 -26 753 l-6 580 50 -43 c92 -77 317 -284 424 -391 148 -149 171
-214 88 -256 -24 -13 -30 -22 -27 -43 3 -23 9 -28 43 -32 22 -3 128 -1 235 3
121 5 284 4 428 -3 270 -13 292 -11 292 30 0 34 -10 40 -109 74 -206 70 -399
209 -801 576 -69 63 -212 193 -318 288 -105 96 -192 180 -192 187 0 11 191
183 450 405 35 30 126 110 202 176 317 281 485 390 649 425 30 6 60 16 67 22
20 16 10 50 -18 65 -26 13 -45 13 -445 -4 -88 -4 -207 -2 -288 5 -157 13 -192
6 -192 -39 0 -20 8 -27 45 -40 39 -13 45 -20 48 -47 6 -64 -79 -163 -337 -392
-198 -176 -274 -240 -284 -241 -7 0 -7 508 1 732 l3 107 97 -6 c549 -32 907
330 786 794 -76 290 -384 464 -749 422z m176 -178 c105 -40 186 -135 223 -260
21 -72 21 -230 0 -302 -66 -221 -214 -326 -449 -317 l-80 3 -3 320 c-4 463 9
555 79 577 42 13 171 1 230 -21z m374 -175 c37 -65 58 -152 57 -239 -1 -82
-30 -198 -58 -232 -16 -20 -16 -20 -9 0 36 102 45 148 45 230 0 108 -18 184
-60 256 -18 29 -24 47 -15 39 9 -7 27 -32 40 -54z m-861 -416 c3 -173 9 -517
12 -765 4 -247 8 -477 10 -510 1 -33 3 -111 3 -173 l1 -114 29 19 c35 22 306
246 446 368 263 229 317 277 422 378 120 114 160 143 74 52 -161 -170 -419
-410 -751 -699 -69 -60 -147 -129 -173 -154 l-49 -44 -3 -227 c-13 -905 -19
-1183 -26 -1166 -4 11 -8 171 -8 356 -1 184 -3 344 -5 355 -2 10 -7 127 -10
259 -4 132 -9 268 -12 302 l-6 63 -96 -83 c-53 -45 -178 -150 -276 -232 -262
-218 -313 -263 -530 -474 -65 -64 -113 -107 -108 -95 13 24 378 384 538 529
137 124 351 315 420 375 45 39 53 51 58 90 3 25 8 221 11 435 4 215 8 458 10
540 3 83 4 327 5 544 0 217 2 392 4 390 3 -2 7 -146 10 -319z m-964 -778 c36
-26 148 -127 250 -227 102 -99 212 -205 245 -234 53 -48 55 -50 10 -16 -95 73
-180 150 -341 306 -88 86 -186 173 -217 194 -31 21 -57 40 -57 42 0 7 45 -19
110 -65z m1510 -1332 c58 -51 159 -148 225 -215 66 -66 157 -149 203 -183 46
-34 79 -62 74 -62 -28 0 -182 128 -352 293 -344 335 -371 365 -150 167z"/>
<path d="M8556 5936 c-8 -6 -28 -47 -45 -92 -16 -44 -63 -154 -104 -245 -41
-90 -87 -193 -102 -229 -68 -164 -121 -235 -197 -263 -10 -3 -18 -16 -18 -27
0 -20 4 -20 147 -18 123 3 148 6 151 18 1 10 -13 23 -40 35 -29 13 -44 27 -46
42 -3 22 50 166 70 190 8 10 47 13 165 11 l155 -3 50 -108 c53 -114 53 -132 5
-139 -14 -2 -23 -11 -25 -25 -3 -22 -2 -22 163 -25 92 -2 173 1 181 5 26 15
14 36 -38 64 -48 26 -56 36 -110 138 -58 111 -160 327 -259 552 -54 122 -72
143 -103 119z m40 -371 c35 -74 64 -138 64 -140 0 -3 -56 -5 -125 -5 -69 0
-125 4 -125 8 0 5 22 60 49 123 27 63 52 124 56 137 4 13 9 21 12 18 3 -3 34
-66 69 -141z m121 -69 c29 -65 51 -121 49 -123 -3 -3 -13 12 -24 34 -28 55
-122 273 -122 281 1 12 40 -66 97 -192z"/>
<path d="M11323 5940 c-53 -11 -96 -33 -157 -82 -102 -80 -146 -174 -146 -310
0 -71 4 -92 30 -146 35 -74 115 -158 178 -186 65 -29 53 -39 -41 -34 -94 6
-117 15 -137 53 -8 14 -21 24 -29 23 -14 -3 -15 -18 -12 -98 2 -52 5 -98 8
-102 5 -10 139 -10 263 -1 l92 6 -4 74 -5 74 -52 46 c-59 52 -85 97 -106 185
-33 140 -7 270 69 355 31 34 58 53 88 62 51 16 124 16 164 1 98 -37 162 -184
152 -346 -8 -113 -38 -187 -103 -249 l-53 -50 -4 -79 -3 -79 172 -4 c94 -2
173 -1 176 4 3 4 6 51 8 103 3 78 1 95 -11 97 -8 2 -25 -12 -37 -31 -14 -22
-32 -35 -53 -40 -42 -8 -165 -8 -173 0 -4 4 19 19 51 34 247 117 284 468 67
641 -81 65 -154 89 -264 88 -47 -1 -105 -5 -128 -9z"/>
</g>
</svg>
